<?xml version="1.0" standalone="no"?>
<!DOCTYPE svg PUBLIC "-//W3C//DTD SVG 1.1//EN" "http://www.w3.org/Graphics/SVG/1.1/DTD/svg11.dtd" >
<svg xmlns="http://www.w3.org/2000/svg">
<metadata>
This is a custom SVG webfont generated by Font Squirrel.
Copyright   : Copyright c 2009 by Reto Moser  Tobias Rechsteiner Groteskcc All rights reserved
Designer    : Reto Moser  Tobias Rechsteiner Groteskcc
Foundry     : Reto Moser  Tobias Rechsteiner Groteskcc
Foundry URL : wwwgrillichtype
</metadata>
<defs>
<font id="GTHaptikRegular" horiz-adv-x="1568" >
<font-face units-per-em="2048" ascent="1536" descent="-512" />
<missing-glyph horiz-adv-x="808" />
<glyph unicode=" "  horiz-adv-x="808" />
<glyph unicode="&#x09;" horiz-adv-x="808" />
<glyph unicode="&#xa0;" horiz-adv-x="808" />
<glyph unicode="!" horiz-adv-x="647" d="M184 139.5q0 -61.5 39 -100.5t100.5 -39t100.5 39t39 100.5t-39 100.5t-100.5 39t-100.5 -39t-39 -100.5zM231 410v1024h185v-1024h-185z" />
<glyph unicode="&#x22;" horiz-adv-x="727" d="M143 911v523h150v-523h-150zM434 911v523h150v-523h-150z" />
<glyph unicode="#" horiz-adv-x="1165" d="M61 436l17 133h215l41 295h-215l18 133h215l60 437h141l-61 -437h260l59 437h141l-61 -437h213l-17 -133h-215l-43 -295h215l-18 -133h-215l-59 -436h-140l62 436h-262l-60 -436h-139l61 436h-213zM432 569h260l39 295h-258z" />
<glyph unicode="$" horiz-adv-x="1185" d="M143 342l162 86q51 -195 209 -235v454q-354 113 -354 391q0 154 101 257.5t253 129.5v172h135v-167q135 -16 242.5 -107.5t150.5 -235.5l-174 -71q-25 96 -85 154.5t-134 72.5v-440q168 -49 271.5 -150.5t103.5 -259.5q0 -164 -108.5 -266t-266.5 -123v-168h-135v168 q-127 16 -227.5 100t-143.5 238zM344 1038q0 -131 170 -196v397q-82 -23 -126 -78t-44 -123zM649 190q84 16 137.5 70.5t53.5 132.5q0 147 -191 217v-420z" />
<glyph unicode="%" horiz-adv-x="1685" d="M72 1102q0 137 97 234.5t234.5 97.5t233.5 -97.5t96 -234.5t-96 -233.5t-233.5 -96.5t-234.5 96.5t-97 233.5zM207 1102q0 -82 57.5 -139.5t139 -57.5t139 57.5t57.5 139.5t-57.5 139t-139 57t-139 -57t-57.5 -139zM244 84l1071 1350l102 -82l-1071 -1352zM952 330 q0 137 96.5 234.5t233.5 97.5t234.5 -97.5t97.5 -234.5t-97.5 -233.5t-234.5 -96.5t-233.5 96.5t-96.5 233.5zM1085 330q0 -82 57.5 -139.5t139.5 -57.5t139.5 57.5t57.5 139.5t-57.5 139t-139.5 57t-139.5 -57t-57.5 -139z" />
<glyph unicode="&#x26;" horiz-adv-x="1415" d="M154 387q0 143 74.5 237.5t207.5 182.5l-49 57q-119 133 -119 283q0 127 91.5 219t240.5 92q147 0 239.5 -93t92.5 -222q0 -119 -60.5 -204t-169.5 -163l271 -307q20 59 43 199l168 -33q-27 -172 -82 -309l178 -201l-139 -123l-137 156q-152 -182 -416 -183 q-199 0 -316.5 121t-117.5 291zM338 387q0 -90 69.5 -163.5t180.5 -73.5q190 0 299 143l-334 381q-104 -70 -159.5 -135.5t-55.5 -151.5zM453 1139q0 -84 77 -168l58 -68q160 113 160 234q0 66 -43 106.5t-107 40.5q-59 0 -102 -42t-43 -103z" />
<glyph unicode="'" horiz-adv-x="436" d="M143 911v523h150v-523h-150z" />
<glyph unicode="(" horiz-adv-x="659" d="M82 641q0 281 101.5 533.5t287.5 443.5l117 -107q-168 -188 -251 -396t-83 -474q0 -264 83 -473t251 -397l-117 -107q-186 190 -287.5 443t-101.5 534z" />
<glyph unicode=")" horiz-adv-x="659" d="M72 -229q168 188 251 397t83 473q0 266 -83 474t-251 396l116 107q186 -190 288 -443t102 -534t-101.5 -533.5t-288.5 -443.5z" />
<glyph unicode="*" horiz-adv-x="690" d="M0 1137l45 127l234 -78v248h131v-248l235 78l45 -127l-239 -76l145 -199l-102 -80l-150 201l-147 -201l-105 80l146 199z" />
<glyph unicode="+" horiz-adv-x="1245" d="M102 559v184h428v428h185v-428h428v-184h-428v-428h-185v428h-428z" />
<glyph unicode="," horiz-adv-x="628" d="M41 -387l381 694l145 -82l-383 -690z" />
<glyph unicode="-" horiz-adv-x="1286" d="M164 541v184h958v-184h-958z" />
<glyph unicode="." horiz-adv-x="731" d="M205 159.5q0 67.5 46 115t113.5 47.5t114.5 -47.5t47 -115t-47 -113.5t-114.5 -46t-113.5 46t-46 113.5z" />
<glyph unicode="/" horiz-adv-x="1501" d="M123 115l1112 1319l143 -113l-1112 -1321z" />
<glyph unicode="0" horiz-adv-x="1593" d="M123 711q0 303 195.5 507.5t478 204.5t478 -204.5t195.5 -507.5t-195.5 -507t-478 -204t-478 204t-195.5 507zM307 710.5q0 -223.5 141.5 -375t348.5 -151.5t348 151.5t141 375t-141 376t-348 152.5t-348.5 -152.5t-141.5 -376zM616 715q0 -72 53.5 -124t127 -52t126 52 t52.5 124q0 76 -52.5 128t-126 52t-127 -52t-53.5 -128z" />
<glyph unicode="1" horiz-adv-x="937" d="M82 952l481 482h170v-1434h-184v1161l-340 -340z" />
<glyph unicode="2" horiz-adv-x="1259" d="M143 1116q70 139 186.5 228.5t270.5 89.5q195 0 325 -126t130 -327q0 -90 -39 -181t-101 -157l-446 -459h586v-184h-862v162l593 610q84 88 84 209q0 119 -74.5 193.5t-195.5 74.5q-94 0 -180 -73.5t-127 -188.5z" />
<glyph unicode="3" horiz-adv-x="1153" d="M143 332l160 123q23 -119 96.5 -195t173.5 -76q102 0 167 60.5t65 161t-61.5 159t-151.5 62.5h-86v184h86q90 4 151.5 62.5t61.5 156.5t-66.5 158.5t-165.5 60.5q-90 0 -166.5 -72.5t-103.5 -189.5l-158 127q43 137 159 228.5t269 91.5q174 0 295 -114t121 -290 q0 -203 -151 -311q152 -106 151 -313q0 -188 -116.5 -297t-299.5 -109q-158 0 -273.5 92.5t-156.5 239.5z" />
<glyph unicode="4" horiz-adv-x="1413" d="M61 291v170l822 973h153v-959h295v-184h-295v-291h-184v291h-791zM319 475h533v635z" />
<glyph unicode="5" horiz-adv-x="1200" d="M143 143l95 164q143 -123 309 -123q131 0 217 77t86 222q0 133 -83 211t-204 78q-166 0 -338 -84v746h811v-185h-626v-311q68 18 153 18q209 0 341 -134t132 -339q0 -231 -144 -357t-345 -126q-238 0 -404 143z" />
<glyph unicode="6" horiz-adv-x="1210" d="M143 625q0 397 150 608q143 201 391 201q184 0 322 -111l-101 -152q-104 78 -221 78q-139 0 -227 -106q-100 -123 -101 -287q111 84 260 84q209 0 340 -129t131 -338q0 -205 -134 -339t-337 -134q-242 0 -376 195q-97 139 -97 430zM334 471q0 -133 82 -210t200 -77 q127 0 207 80t80 207q0 131 -76.5 208t-210.5 77q-123 0 -202.5 -80t-79.5 -205z" />
<glyph unicode="7" horiz-adv-x="1112" d="M82 1249v185h948v-177l-649 -1257h-207l643 1249h-735z" />
<glyph unicode="8" horiz-adv-x="1138" d="M143 403q0 203 162 314q-162 111 -162 313q0 184 119 294t307.5 110t307 -110t118.5 -294q0 -195 -170 -313q170 -119 170 -314q0 -184 -118.5 -293.5t-307 -109.5t-307.5 109.5t-119 293.5zM328 403q0 -98 67.5 -158.5t176 -60.5t174 59.5t65.5 159.5q0 102 -70.5 162 t-169.5 60q-100 0 -171.5 -61t-71.5 -161zM328 1030q0 -100 71.5 -160.5t171.5 -60.5q98 0 169 59.5t71 161.5q0 100 -65.5 159.5t-174 59.5t-176 -60.5t-67.5 -158.5z" />
<glyph unicode="9" horiz-adv-x="1220" d="M123 961q0 205 134 339t337 134q242 0 377 -195q96 -139 96 -430q0 -424 -139 -621q-133 -188 -391 -188q-113 0 -188 20.5t-159 67.5l78 168q129 -72 268.5 -72t227.5 105q90 104 90 289q-111 -84 -260 -84q-209 0 -340 129t-131 338zM307 963q0 -131 77 -208t210 -77 q123 0 203 80t80 205q0 133 -82 209.5t-201 76.5q-127 0 -207 -79.5t-80 -206.5z" />
<glyph unicode=":" horiz-adv-x="649" d="M164 159.5q0 67.5 46 115t113.5 47.5t114.5 -47.5t47 -115t-47 -113.5t-114.5 -46t-113.5 46t-46 113.5zM164 888.5q0 67.5 46 115t113.5 47.5t114.5 -47.5t47 -115t-47 -113.5t-114.5 -46t-113.5 46t-46 113.5z" />
<glyph unicode=";" horiz-adv-x="815" d="M61 -387l381 694l146 -82l-383 -690zM330 888.5q0 67.5 46 115t113.5 47.5t114.5 -47.5t47 -115t-47 -113.5t-114.5 -46t-113.5 46t-46 113.5z" />
<glyph unicode="&#x3c;" horiz-adv-x="1159" d="M102 492v163l889 396l76 -162l-715 -316l715 -315l-76 -162z" />
<glyph unicode="=" horiz-adv-x="1200" d="M102 283v184h996v-184h-996zM102 723v184h996v-184h-996z" />
<glyph unicode="&#x3e;" horiz-adv-x="1159" d="M92 258l715 315l-715 316l76 162l889 -396v-163l-889 -396z" />
<glyph unicode="?" horiz-adv-x="1128" d="M102 958q0 205 122 340.5t323 135.5q190 0 304 -107.5t114 -292.5q0 -193 -199 -358q-125 -104 -125 -221v-52h-184v52q0 207 200 368q123 98 123 211q0 90 -60.5 152.5t-172.5 62.5q-119 0 -191.5 -79.5t-72.5 -211.5h-181zM410 139.5q0 -61.5 38.5 -100.5t100 -39 t100.5 39t39 100.5t-39 100.5t-100.5 39t-100 -39t-38.5 -100.5z" />
<glyph unicode="@" horiz-adv-x="1943" d="M164 621q0 362 239.5 599.5t597.5 237.5q354 0 576.5 -200.5t222.5 -530.5q0 -252 -92 -394.5t-272 -142.5q-170 0 -217 142q-96 -145 -281 -146q-135 0 -216 75t-81 191.5t77 185.5t183 77l242 18q35 2 35 37v29q0 39 -44 73.5t-116 34.5q-80 0 -139.5 -38t-71.5 -111 l-145 69q59 231 344 232q170 0 252.5 -86t82.5 -236v-268q0 -63 28 -97t77 -34q182 0 182 385q0 254 -173 412.5t-454 158.5q-287 0 -476 -190.5t-189 -482.5q0 -295 182 -487.5t467 -192.5q258 0 467 94l33 -160q-236 -98 -500 -98q-356 0 -588.5 239.5t-232.5 604.5z M811 453q0 -49 36 -82t105 -33q98 0 162 62.5t64 142.5v49l-260 -29q-51 -6 -79 -37.5t-28 -72.5z" />
<glyph unicode="A" d="M20 0l668 1434h193l667 -1434h-202l-115 252h-893l-115 -252h-203zM426 436h717l-359 774z" />
<glyph unicode="B" horiz-adv-x="1243" d="M164 0v1434h600q168 0 282.5 -112t114.5 -288q0 -100 -47 -185t-127 -132q80 -49 127 -132t47 -186q0 -176 -114.5 -287.5t-282.5 -111.5h-600zM348 184h416q94 0 153.5 59.5t59.5 156t-57.5 161t-145.5 64.5h-426v-441zM348 809h426q88 0 145.5 64.5t57.5 160.5 t-59.5 155.5t-153.5 59.5h-416v-440z" />
<glyph unicode="C" horiz-adv-x="1349" d="M102 717q0 305 206 511t511 206q281 0 500 -205l-84 -174q-80 88 -189.5 141t-226.5 53q-236 0 -384 -147.5t-148 -385t148.5 -385t383.5 -147.5q115 0 252 64l33 -189q-164 -59 -285 -59q-305 0 -511 206t-206 511z" />
<glyph unicode="D" horiz-adv-x="1472" d="M164 0v1434h491q305 0 510 -204t205 -513t-204.5 -513t-510.5 -204h-491zM348 184h307q231 0 381 149.5t150 383t-149.5 383t-381.5 149.5h-307v-1065z" />
<glyph unicode="E" horiz-adv-x="1157" d="M164 0v1434h880v-185h-696v-440h696v-184h-696v-441h696v-184h-880z" />
<glyph unicode="F" horiz-adv-x="1126" d="M164 0v1434h880v-185h-696v-440h696v-184h-696v-625h-184z" />
<glyph unicode="G" horiz-adv-x="1349" d="M102 717q0 305 206 511t511 206q281 0 500 -205l-84 -174q-80 88 -189.5 141t-226.5 53q-236 0 -384 -147.5t-148 -385t148.5 -385t383.5 -147.5q49 0 119 17v370h-330v185h514v-690q-162 -66 -303 -66q-305 0 -511 206t-206 511z" />
<glyph unicode="H" horiz-adv-x="1513" d="M164 0v1434h184v-625h817v625h185v-1434h-185v625h-817v-625h-184z" />
<glyph unicode="I" horiz-adv-x="512" d="M164 0v1434h184v-1434h-184z" />
<glyph unicode="J" horiz-adv-x="1007" d="M31 418l170 84q0 -141 62.5 -229.5t187.5 -88.5q106 0 167.5 77t61.5 192v981h184v-981q0 -203 -111.5 -328t-301.5 -125q-106 0 -190.5 39t-132.5 101.5t-72.5 133t-24.5 144.5z" />
<glyph unicode="K" horiz-adv-x="1325" d="M164 0v1434h184v-715l707 715h260l-619 -625l619 -809h-234l-516 676l-217 -219v-457h-184z" />
<glyph unicode="L" horiz-adv-x="1089" d="M164 0v1434h184v-1250h711v-184h-895z" />
<glyph unicode="M" horiz-adv-x="2070" d="M164 0v1434h190l682 -1196l680 1196h191v-1434h-185v1065l-606 -1065h-162l-606 1065v-1065h-184z" />
<glyph unicode="N" horiz-adv-x="1611" d="M164 0v1434h170l930 -1129v1129h184v-1434h-176l-924 1120v-1120h-184z" />
<glyph unicode="O" horiz-adv-x="1634" d="M102 717q0 307 205 512t510 205q307 0 511 -205t204 -512t-204 -512t-511 -205q-305 0 -510 205t-205 512zM287 716.5q0 -229.5 150.5 -381t380 -151.5t380 151.5t150.5 381t-150.5 381t-380 151.5t-380 -151.5t-150.5 -381z" />
<glyph unicode="P" horiz-adv-x="1218" d="M164 0v1434h510q209 0 346 -137.5t137 -346.5t-137 -346t-346 -137h-326v-467h-184zM348 651h326q125 0 212 85t87 214t-87 214t-212 85h-326v-598z" />
<glyph unicode="Q" horiz-adv-x="1710" d="M102 717q0 307 205 512t510 205q307 0 512 -205t205 -512q0 -262 -150 -449l367 -364l-129 -129l-367 366q-184 -141 -438 -141q-305 0 -510 205t-205 512zM287 716.5q0 -229.5 150.5 -381t379.5 -151.5q170 0 305 90l-401 402l129 129l401 -402q98 137 99 314 q0 229 -151.5 380.5t-381 151.5t-380 -151.5t-150.5 -381z" />
<glyph unicode="R" horiz-adv-x="1378" d="M164 0v1434h551q209 0 346 -137.5t137 -346.5q0 -143 -68.5 -256.5t-185.5 -173.5l424 -520h-240l-380 467h-400v-467h-184zM348 651h254l-82 103l142 118l159 -202q86 33 139.5 108.5t53.5 171.5q0 129 -87 214t-212 85h-367v-598z" />
<glyph unicode="S" horiz-adv-x="1165" d="M133 342l162 86q31 -119 105.5 -181.5t170.5 -62.5q111 0 184.5 57.5t73.5 151.5q0 172 -254 236q-426 109 -425 409q0 176 130 286t310 110q152 0 273.5 -94.5t168.5 -252.5l-174 -71q-29 111 -104.5 172t-163.5 61q-121 0 -188.5 -63.5t-67.5 -147.5q0 -94 73.5 -146 t206.5 -85q178 -45 289 -146.5t111 -267.5q0 -184 -131 -288.5t-312 -104.5q-92 0 -175 31.5t-155.5 111.5t-107.5 199z" />
<glyph unicode="T" horiz-adv-x="1333" d="M10 1249v185h1313v-185h-565v-1249h-185v1249h-563z" />
<glyph unicode="U" horiz-adv-x="1597" d="M143 655v779h185v-779q0 -201 135 -336t335.5 -135t336 135.5t135.5 335.5v779h184v-779q0 -279 -188.5 -467t-467 -188t-467 188t-188.5 467z" />
<glyph unicode="V" horiz-adv-x="1523" d="M10 1434h205l549 -1155l545 1155h204l-682 -1434h-139z" />
<glyph unicode="W" horiz-adv-x="2498" d="M20 1434h199l445 -1119l497 1119h176l498 -1119l444 1119h199l-569 -1434h-135l-525 1176l-524 -1176h-135z" />
<glyph unicode="X" horiz-adv-x="1458" d="M31 0l579 715l-579 719h235l463 -572l463 572h235l-579 -719l579 -715h-237l-461 567l-461 -567h-237z" />
<glyph unicode="Y" horiz-adv-x="1355" d="M10 1434h226l442 -639l442 639h226l-576 -830v-604h-184v604z" />
<glyph unicode="Z" horiz-adv-x="1355" d="M102 0v141l877 1108h-877v185h1151v-142l-876 -1108h876v-184h-1151z" />
<glyph unicode="[" horiz-adv-x="696" d="M225 -274v1833h410v-144h-256v-1546h256v-143h-410z" />
<glyph unicode="\" horiz-adv-x="1378" d="M61 1321l144 113l1112 -1319l-143 -115z" />
<glyph unicode="]" horiz-adv-x="696" d="M61 -131h256v1546h-256v144h410v-1833h-410v143z" />
<glyph unicode="^" horiz-adv-x="698" d="M20 1282l330 311l328 -311l-109 -111l-219 213l-221 -213z" />
<glyph unicode="_" horiz-adv-x="1224" d="M61 20h1102v-141h-1102v141z" />
<glyph unicode="`" horiz-adv-x="557" d="M20 1462l82 131l435 -280l-80 -123z" />
<glyph unicode="a" horiz-adv-x="1085" d="M92 293q0 141 88 224t223 95l297 29q35 2 55.5 23.5t20.5 52.5v22q0 68 -60.5 110t-162.5 42q-231 0 -264 -186l-160 86q66 258 408 258q209 0 312 -100.5t103 -282.5v-666h-176v145q-49 -76 -137 -120.5t-193 -44.5q-166 0 -260 88t-94 225zM272 293q0 -68 50.5 -108 t150.5 -40q123 0 213 84t90 185v75l-342 -40q-162 -21 -162 -156z" />
<glyph unicode="b" horiz-adv-x="1234" d="M143 0v1434h176v-549q57 74 148.5 119t198.5 45q227 0 367.5 -146.5t140.5 -390.5t-140.5 -390.5t-367.5 -146.5q-104 0 -197.5 48.5t-149.5 123.5v-147h-176zM307 512q0 -170 90 -271.5t250 -101.5q154 0 249 104.5t95 268.5t-95 268.5t-249 104.5q-160 0 -250 -101.5 t-90 -271.5z" />
<glyph unicode="c" horiz-adv-x="1011" d="M61 512q0 229 152 383t377 154q221 0 362 -152l-110 -139q-100 121 -252 121q-147 0 -246.5 -101.5t-99.5 -265.5t99 -265.5t247 -101.5q152 0 262 127l109 -141q-150 -156 -371 -156q-225 0 -377 154t-152 383z" />
<glyph unicode="d" horiz-adv-x="1234" d="M61 512q0 244 140.5 390.5t367.5 146.5q111 0 202 -44t144 -120v549h177v-1434h-177v147q-47 -76 -143 -124t-203 -48q-227 0 -367.5 146.5t-140.5 390.5zM244 512q0 -164 95 -268.5t249 -104.5q160 0 250 101.5t90 271.5t-90 271.5t-250 101.5q-154 0 -249 -104.5 t-95 -268.5z" />
<glyph unicode="e" horiz-adv-x="1110" d="M61 512q0 223 139.5 380t370.5 157q217 0 351.5 -153t136.5 -384v-53h-821q6 -145 101 -232.5t232 -87.5q186 0 326 162l94 -139q-82 -90 -178 -138.5t-242 -48.5q-223 0 -366.5 149.5t-143.5 387.5zM250 600h616q-16 129 -94 207t-201 78q-127 0 -212.5 -78t-108.5 -207 z" />
<glyph unicode="f" horiz-adv-x="737" d="M31 870v154h188v57q0 371 330 371q66 0 158 -14v-160q-72 10 -136 10q-92 0 -134 -45t-42 -162v-57h297v-154h-297v-870h-176v870h-188z" />
<glyph unicode="g" horiz-adv-x="1255" d="M82 512q0 244 140 390.5t368 146.5q109 0 204 -45.5t142 -118.5v139h176v-969q0 -96 -21.5 -177t-72.5 -155.5t-150.5 -116.5t-238.5 -42q-193 0 -301.5 64.5t-173.5 187.5l137 108q104 -205 348 -205q303 0 303 336v84q-51 -76 -146.5 -120t-205.5 -44 q-227 0 -367.5 146.5t-140.5 390.5zM264 512q0 -164 95.5 -268.5t248.5 -104.5q160 0 250 101.5t90 271.5t-90 271.5t-250 101.5q-154 0 -249 -104.5t-95 -268.5z" />
<glyph unicode="h" horiz-adv-x="1161" d="M143 0v1434h176v-545q115 160 320 160q203 0 301 -119t98 -328v-602h-180v610q0 133 -60.5 204t-179.5 71q-162 0 -239 -121q-59 -94 -60 -287v-477h-176z" />
<glyph unicode="i" horiz-adv-x="524" d="M123 1321q0 59 41 99t98 40t98 -40t41 -99t-41 -99t-98 -40t-98 40t-41 99zM174 0v1024h176v-1024h-176z" />
<glyph unicode="j" horiz-adv-x="542" d="M-41 -246q141 0 192.5 48t51.5 149v1073h176v-1073q0 -193 -95.5 -281t-324.5 -88v172zM152 1321q0 59 40.5 99t98 40t98.5 -40t41 -99t-41 -99t-98.5 -40t-98 40t-40.5 99z" />
<glyph unicode="k" horiz-adv-x="1054" d="M143 0v1434h176v-891l467 481h248l-434 -453l434 -571h-229l-330 455l-156 -148v-307h-176z" />
<glyph unicode="l" horiz-adv-x="466" d="M143 0v1434h181v-1434h-181z" />
<glyph unicode="m" horiz-adv-x="1896" d="M143 0v1024h170v-143q47 80 132 124t188 44q250 0 342 -203q133 203 375 203q403 0 403 -459v-590h-178v612q0 272 -246 273q-158 0 -233 -121q-59 -94 -60 -287v-477h-178v612q0 272 -244 273q-160 0 -235 -121q-59 -94 -60 -287v-477h-176z" />
<glyph unicode="n" horiz-adv-x="1181" d="M143 0v1024h170v-135q111 160 326 160q203 0 301 -119t98 -328v-602h-180v610q0 133 -60.5 204t-179.5 71q-162 0 -239 -121q-59 -94 -60 -287v-477h-176z" />
<glyph unicode="o" horiz-adv-x="1196" d="M61 512q0 223 157 380t380 157t380 -157t157 -380t-157 -380t-380 -157t-380 157t-157 380zM244 512q0 -156 101 -261.5t253 -105.5t253 105.5t101 261.5t-101 261.5t-253 105.5t-253 -105.5t-101 -261.5z" />
<glyph unicode="p" horiz-adv-x="1234" d="M143 -410v1434h176v-139q57 74 148.5 119t198.5 45q227 0 367.5 -146.5t140.5 -390.5t-140.5 -390.5t-367.5 -146.5q-104 0 -197.5 48.5t-149.5 123.5v-557h-176zM307 512q0 -170 90 -271.5t250 -101.5q154 0 249 104.5t95 268.5t-95 268.5t-249 104.5 q-160 0 -250 -101.5t-90 -271.5z" />
<glyph unicode="q" horiz-adv-x="1234" d="M61 512q0 244 140.5 390.5t367.5 146.5q111 0 202 -44t144 -120v139h177v-1434h-177v557q-49 -76 -143 -124t-203 -48q-227 0 -367.5 146.5t-140.5 390.5zM244 512q0 -164 95 -268.5t249 -104.5q160 0 250 101.5t90 271.5t-90 271.5t-250 101.5q-154 0 -249 -104.5 t-95 -268.5z" />
<glyph unicode="r" horiz-adv-x="765" d="M143 0v1024h170v-154q100 180 305 181l107 -11l-2 -184q-41 10 -105 10q-162 0 -233 -104q-66 -94 -66 -285v-477h-176z" />
<glyph unicode="s" horiz-adv-x="956" d="M72 215l145 92q37 -86 107.5 -127t152.5 -41q104 0 168 39t64 105q0 63 -60.5 97t-175.5 54q-178 35 -280.5 102.5t-102.5 204.5q0 129 109.5 218.5t289.5 89.5q276 0 396 -222l-146 -92q-35 72 -103.5 111t-146.5 39q-106 0 -164.5 -42t-58.5 -102q0 -43 36 -71.5 t77 -41t123 -30.5q193 -43 287 -109.5t94 -205.5q0 -135 -114 -221.5t-292 -86.5q-127 0 -238.5 57.5t-166.5 182.5z" />
<glyph unicode="t" horiz-adv-x="772" d="M31 870v154h202v291h177v-291h280v-154h-280v-594q0 -125 116 -124q63 0 174 12v-154q-98 -20 -184 -20q-143 0 -213 68.5t-70 228.5v583h-202z" />
<glyph unicode="u" horiz-adv-x="1167" d="M143 418v606h181v-606q0 -137 50 -208t181 -71q156 0 233 121q59 94 60 287v477h176v-1024h-170v147q-117 -172 -319 -172q-211 0 -301.5 115t-90.5 328z" />
<glyph unicode="v" horiz-adv-x="1081" d="M20 1024h193l328 -793l327 793h193l-451 -1024h-139z" />
<glyph unicode="w" horiz-adv-x="1773" d="M20 1024h191l297 -760l315 760h125l316 -760l299 760h190l-422 -1024h-135l-309 735l-312 -735h-135z" />
<glyph unicode="x" horiz-adv-x="1064" d="M20 0l406 512l-406 512h218l294 -381l295 381h217l-405 -512l405 -512h-217l-295 381l-294 -381h-218z" />
<glyph unicode="y" horiz-adv-x="1075" d="M20 1024h213l326 -680l320 680h186l-662 -1434h-190l252 549z" />
<glyph unicode="z" horiz-adv-x="929" d="M61 0v158l570 702h-553v164h770v-158l-569 -702h589v-164h-807z" />
<glyph unicode="{" horiz-adv-x="774" d="M123 569v152q102 6 161.5 56t59.5 134v328q0 319 334 320h55v-144h-65q-74 0 -122 -43t-48 -123v-342q0 -188 -164 -252v-4q88 -35 126 -94t38 -154v-368q0 -80 48 -123t122 -43h65v-143h-55q-334 0 -334 319v338q0 84 -59.5 132t-161.5 54z" />
<glyph unicode="|" horiz-adv-x="563" d="M205 -274v1833h153v-1833h-153z" />
<glyph unicode="}" horiz-adv-x="774" d="M41 -131h65q74 0 122 43t48 123v368q0 94 38 153.5t126 94.5v4q-164 63 -164 252v342q0 80 -48 123t-122 43h-65v144h55q334 0 334 -320v-328q0 -84 59.5 -134t161.5 -56v-152q-102 -6 -161.5 -54t-59.5 -132v-338q0 -319 -334 -319h-55v143z" />
<glyph unicode="~" horiz-adv-x="1398" d="M154 629q170 166 321 166q96 0 238.5 -71t210.5 -71q102 0 225 119l96 -127q-178 -174 -321 -174q-96 0 -238.5 70.5t-210.5 70.5q-102 0 -225 -118z" />
<glyph unicode="&#xa1;" horiz-adv-x="647" d="M184 911.5q0 61.5 39 100.5t100.5 39t100.5 -39t39 -100.5t-39 -100.5t-100.5 -39t-100.5 39t-39 100.5zM231 -410v1047h185v-1047h-185z" />
<glyph unicode="&#xa2;" horiz-adv-x="1062" d="M102 512q0 203 121 349.5t312 178.5v187h133v-180q199 -12 325 -150l-110 -139q-92 104 -215 119v-730q127 14 225 125l108 -141q-135 -141 -333 -154v-176h-133v183q-190 33 -311.5 179t-121.5 349zM285 512q0 -133 69.5 -228.5t180.5 -125.5v708q-113 -31 -181.5 -126 t-68.5 -228z" />
<glyph unicode="&#xa3;" horiz-adv-x="1275" d="M123 655v154h201v242q0 182 100 295.5t293 113.5q133 0 226 -66.5t136 -162.5l-155 -111q-25 74 -81.5 120t-125.5 46q-98 0 -153.5 -60.5t-55.5 -174.5v-242h399v-154h-399v-276q0 -150 -96 -199v-6h399q203 0 309 176l94 -164q-139 -186 -403 -186h-668v168 q180 18 181 211v276h-201z" />
<glyph unicode="&#xa5;" horiz-adv-x="1376" d="M41 1434h225l422 -646l422 646h225l-458 -686h288v-144h-385v-141h385v-144h-385v-319h-184v319h-385v144h385v141h-385v144h289z" />
<glyph unicode="&#xa8;" horiz-adv-x="794" d="M20 1321q0 59 41 99t98.5 40t98.5 -40t41 -99t-41 -99t-98.5 -40t-98.5 40t-41 99zM496 1321q0 59 41 99t98 40t98 -40t41 -99t-41 -99t-98 -40t-98 40t-41 99z" />
<glyph unicode="&#xa9;" horiz-adv-x="1806" d="M164 716.5q0 317.5 211 530.5t528.5 213t528 -213t210.5 -530.5t-210.5 -530.5t-528 -213t-528.5 213t-211 530.5zM307 717q0 -258 169 -429t427 -171t427 171t169 429t-169 429t-427 171t-427 -171t-169 -429zM520 737q0 172 116 288t290 116q164 0 293 -129l-60 -129 q-98 119 -233 118q-117 0 -192 -72.5t-75 -191.5t75 -193.5t192 -74.5q68 0 151 45l23 -145q-86 -37 -174 -37q-174 0 -290 115.5t-116 289.5z" />
<glyph unicode="&#xab;" horiz-adv-x="1153" d="M82 512l379 430l117 -106l-293 -324l293 -326l-117 -104zM494 512l378 430l117 -106l-291 -324l291 -326l-117 -104z" />
<glyph unicode="&#xad;" horiz-adv-x="1286" d="M164 541v184h958v-184h-958z" />
<glyph unicode="&#xae;" horiz-adv-x="1806" d="M164 716.5q0 317.5 211 530.5t528.5 213t528 -213t210.5 -530.5t-210.5 -530.5t-528 -213t-528.5 213t-211 530.5zM307 717q0 -258 169 -429t427 -171t427 171t169 429t-169 429t-427 171t-427 -171t-169 -429zM629 344v776h303q115 0 191.5 -75.5t76.5 -192.5 q0 -158 -125 -227l228 -281h-162l-197 244h-188v-244h-127zM756 709h86l-33 43l98 79l86 -108q80 33 80 129q0 61 -40 102t-101 41h-176v-286z" />
<glyph unicode="&#xb4;" horiz-adv-x="557" d="M20 1313l435 280l82 -131l-437 -272z" />
<glyph unicode="&#xb6;" horiz-adv-x="1200" d="M82 1052.5q0 161.5 109.5 271.5t271.5 110h532v-1708h-159v1554h-213v-1554h-160v946q-162 0 -271.5 109.5t-109.5 271z" />
<glyph unicode="&#xb8;" horiz-adv-x="514" d="M102 -285l162 346h148l-156 -346h-154z" />
<glyph unicode="&#xbb;" horiz-adv-x="1155" d="M164 186l293 326l-293 324l117 106l378 -430l-378 -430zM578 186l292 326l-292 324l116 106l379 -430l-379 -430z" />
<glyph unicode="&#xbf;" horiz-adv-x="1005" d="M82 -27q0 193 199 359q125 104 125 221v84h184v-84q0 -207 -201 -369q-123 -98 -123 -211q0 -90 60.5 -152.5t173.5 -62.5q119 0 191.5 80t72.5 211h180q0 -205 -122 -340t-322 -135q-190 0 -304 107.5t-114 291.5zM358 911.5q0 61.5 39 100.5t100.5 39t100.5 -39 t39 -100.5t-39 -100.5t-100.5 -39t-100.5 39t-39 100.5z" />
<glyph unicode="&#xc0;" d="M20 0l668 1434h193l667 -1434h-202l-115 252h-893l-115 -252h-203zM426 436h717l-359 774zM451 1831l81 131l435 -281l-80 -122z" />
<glyph unicode="&#xc1;" d="M20 0l668 1434h193l667 -1434h-202l-115 252h-893l-115 -252h-203zM426 436h717l-359 774zM602 1681l434 281l82 -131l-436 -272z" />
<glyph unicode="&#xc2;" d="M20 0l668 1434h193l667 -1434h-202l-115 252h-893l-115 -252h-203zM426 436h717l-359 774zM432 1653l361 309l360 -309l-96 -107l-264 230l-265 -230z" />
<glyph unicode="&#xc3;" d="M20 0l668 1434h193l667 -1434h-202l-115 252h-893l-115 -252h-203zM426 436h717l-359 774zM461 1669q121 129 211 129q51 0 120.5 -42t104.5 -42q59 0 129 70l82 -84q-121 -129 -211 -129q-53 0 -120.5 42t-104.5 42q-59 0 -129 -70z" />
<glyph unicode="&#xc4;" d="M20 0l668 1434h193l667 -1434h-202l-115 252h-893l-115 -252h-203zM281 1511.5q0 57.5 39.5 98.5t99 41t99.5 -41t40 -98.5t-40 -98.5t-99.5 -41t-99 41t-39.5 98.5zM426 436h717l-359 774zM1010 1511.5q0 57.5 40 98.5t99 41t99 -41t40 -98.5t-40 -98.5t-99 -41t-99 41 t-40 98.5z" />
<glyph unicode="&#xc5;" d="M20 0l668 1434h193l667 -1434h-202l-115 252h-893l-115 -252h-203zM426 436h717l-359 774zM559 1786q0 98 63.5 162.5t162 64.5t163 -64.5t64.5 -162.5t-64.5 -161.5t-163 -63.5t-162 63.5t-63.5 161.5zM676 1786q0 -49 29.5 -79t79 -30t79 30t29.5 79t-29.5 78.5 t-79 29.5t-79 -29.5t-29.5 -78.5z" />
<glyph unicode="&#xc6;" horiz-adv-x="2033" d="M10 0l1039 1434h872v-185h-696v-440h696v-184h-696v-441h696v-184h-883v252h-612l-178 -252h-238zM561 436h479v664z" />
<glyph unicode="&#xc7;" horiz-adv-x="1349" d="M102 717q0 305 206 511t511 206q281 0 500 -205l-84 -174q-80 88 -189.5 141t-226.5 53q-236 0 -384 -147.5t-148 -385t148.5 -385t383.5 -147.5q115 0 252 64l33 -189q-137 -49 -240 -57l-129 -287h-153l135 291q-268 35 -441.5 233.5t-173.5 477.5z" />
<glyph unicode="&#xc8;" horiz-adv-x="1157" d="M164 0v1434h880v-185h-696v-440h696v-184h-696v-441h696v-184h-880zM309 1831l82 131l434 -281l-80 -122z" />
<glyph unicode="&#xc9;" horiz-adv-x="1157" d="M164 0v1434h880v-185h-696v-440h696v-184h-696v-441h696v-184h-880zM418 1681l434 281l82 -131l-436 -272z" />
<glyph unicode="&#xca;" horiz-adv-x="1157" d="M164 0v1434h880v-185h-696v-440h696v-184h-696v-441h696v-184h-880zM250 1653l360 309l361 -309l-97 -107l-264 230l-264 -230z" />
<glyph unicode="&#xcb;" horiz-adv-x="1157" d="M164 0v1434h880v-185h-696v-440h696v-184h-696v-441h696v-184h-880zM244 1699.5q0 57.5 40 98.5t99 41t99 -41t40 -98.5t-40 -98t-99 -40.5t-99 40.5t-40 98zM719 1699.5q0 57.5 40 98.5t99.5 41t99 -41t39.5 -98.5t-39.5 -98t-99 -40.5t-99.5 40.5t-40 98z" />
<glyph unicode="&#xcc;" horiz-adv-x="516" d="M-41 1831l82 131l434 -281l-80 -122zM182 0v1434h185v-1434h-185z" />
<glyph unicode="&#xcd;" horiz-adv-x="546" d="M72 1681l434 281l82 -131l-436 -272zM166 0v1434h184v-1434h-184z" />
<glyph unicode="&#xce;" horiz-adv-x="598" d="M-61 1653l360 309l360 -309l-96 -107l-264 230l-264 -230zM201 0v1434h184v-1434h-184z" />
<glyph unicode="&#xcf;" horiz-adv-x="552" d="M-164 1511.5q0 57.5 41 98.5t98.5 41t98.5 -41t41 -98.5t-41 -98.5t-98.5 -41t-98.5 41t-41 98.5zM184 0v1434h185v-1434h-185zM438 1511.5q0 57.5 41 98.5t98.5 41t98.5 -41t41 -98.5t-41 -98.5t-98.5 -41t-98.5 41t-41 98.5z" />
<glyph unicode="&#xd1;" horiz-adv-x="1611" d="M164 0v1434h170l930 -1129v1129h184v-1434h-176l-924 1120v-1120h-184zM500 1669q121 129 211 129q51 0 120.5 -42t104.5 -42q59 0 129 70l82 -84q-121 -129 -211 -129q-53 0 -120.5 42t-104.5 42q-59 0 -129 -70z" />
<glyph unicode="&#xd2;" horiz-adv-x="1634" d="M102 717q0 307 205 512t510 205q307 0 511 -205t204 -512t-204 -512t-511 -205q-305 0 -510 205t-205 512zM287 716.5q0 -229.5 150.5 -381t380 -151.5t380 151.5t150.5 381t-150.5 381t-380 151.5t-380 -151.5t-150.5 -381zM485 1831l82 131l434 -281l-79 -122z" />
<glyph unicode="&#xd3;" horiz-adv-x="1634" d="M102 717q0 307 205 512t510 205q307 0 511 -205t204 -512t-204 -512t-511 -205q-305 0 -510 205t-205 512zM287 716.5q0 -229.5 150.5 -381t380 -151.5t380 151.5t150.5 381t-150.5 381t-380 151.5t-380 -151.5t-150.5 -381zM635 1681l434 281l82 -131l-436 -272z" />
<glyph unicode="&#xd4;" horiz-adv-x="1634" d="M102 717q0 307 205 512t510 205q307 0 511 -205t204 -512t-204 -512t-511 -205q-305 0 -510 205t-205 512zM287 716.5q0 -229.5 150.5 -381t380 -151.5t380 151.5t150.5 381t-150.5 381t-380 151.5t-380 -151.5t-150.5 -381zM467 1653l360 309l361 -309l-96 -107 l-265 230l-264 -230z" />
<glyph unicode="&#xd5;" horiz-adv-x="1634" d="M102 717q0 307 205 512t510 205q307 0 511 -205t204 -512t-204 -512t-511 -205q-305 0 -510 205t-205 512zM287 716.5q0 -229.5 150.5 -381t380 -151.5t380 151.5t150.5 381t-150.5 381t-380 151.5t-380 -151.5t-150.5 -381zM494 1710q121 129 211 129q51 0 120.5 -42 t104.5 -42q59 0 129 70l82 -84q-121 -129 -211 -129q-53 0 -121 42t-104 42q-59 0 -130 -70z" />
<glyph unicode="&#xd6;" horiz-adv-x="1671" d="M102 1511.5q0 57.5 41 98.5t98.5 41t98.5 -41t41 -98.5t-41 -98.5t-98.5 -41t-98.5 41t-41 98.5zM121 717q0 307 204.5 512t510.5 205q307 0 510.5 -205t203.5 -512t-203.5 -512t-510.5 -205q-305 0 -510 205t-205 512zM305 716.5q0 -229.5 150.5 -381t380 -151.5 t380 151.5t150.5 381t-150.5 381t-380 151.5t-380 -151.5t-150.5 -381zM1290 1511.5q0 57.5 41 98.5t98.5 41t98.5 -41t41 -98.5t-41 -98.5t-98.5 -41t-98.5 41t-41 98.5z" />
<glyph unicode="&#xd7;" horiz-adv-x="1214" d="M123 289l360 360l-360 363l123 123l360 -361l363 363l123 -125l-361 -363l361 -360l-123 -125l-363 362l-360 -360z" />
<glyph unicode="&#xd8;" horiz-adv-x="1634" d="M102 717q0 307 205 512t510 205q231 0 412 -123l131 155l108 -94l-131 -153q195 -205 195 -502q0 -307 -204 -512t-511 -205q-231 0 -409 121l-132 -154l-110 92l131 154q-195 205 -195 504zM287 717q0 -213 131 -361l690 813q-127 80 -291 80q-229 0 -379.5 -151.5 t-150.5 -380.5zM528 264q127 -80 289 -80q229 0 380 151.5t151 381.5q0 211 -131 358z" />
<glyph unicode="&#xd9;" horiz-adv-x="1597" d="M143 655v779h185v-779q0 -201 135 -336t335.5 -135t336 135.5t135.5 335.5v779h184v-779q0 -279 -188.5 -467t-467 -188t-467 188t-188.5 467zM487 1831l82 131l435 -281l-80 -122z" />
<glyph unicode="&#xda;" horiz-adv-x="1597" d="M143 655v779h185v-779q0 -201 135 -336t335.5 -135t336 135.5t135.5 335.5v779h184v-779q0 -279 -188.5 -467t-467 -188t-467 188t-188.5 467zM616 1681l435 281l82 -131l-437 -272z" />
<glyph unicode="&#xdb;" horiz-adv-x="1597" d="M143 655v779h185v-779q0 -201 135 -336t335.5 -135t336 135.5t135.5 335.5v779h184v-779q0 -279 -188.5 -467t-467 -188t-467 188t-188.5 467zM449 1653l360 309l360 -309l-96 -107l-264 230l-264 -230z" />
<glyph unicode="&#xdc;" horiz-adv-x="1597" d="M143 655v779h185v-779q0 -201 135 -336t335.5 -135t336 135.5t135.5 335.5v779h184v-779q0 -279 -188.5 -467t-467 -188t-467 188t-188.5 467zM430 1511.5q0 57.5 41 98.5t98.5 41t98.5 -41t41 -98.5t-41 -98.5t-98.5 -41t-98.5 41t-41 98.5zM889 1511.5q0 57.5 41 98.5 t98 41t98 -41t41 -98.5t-41 -98.5t-98 -41t-98 41t-41 98.5z" />
<glyph unicode="&#xdd;" horiz-adv-x="1355" d="M10 1434h226l442 -639l442 639h226l-576 -830v-604h-184v604zM535 1681l434 281l82 -131l-437 -272z" />
<glyph unicode="&#xdf;" horiz-adv-x="1173" d="M143 -154v1141q0 217 109.5 345t329.5 128q205 0 311 -102.5t106 -259.5q0 -104 -50 -183t-140 -114q133 -27 218 -125t85 -258q0 -205 -131 -318.5t-352 -113.5q-61 0 -129 6v162q55 -4 110 -4q147 0 236.5 67.5t89.5 200.5q0 139 -104.5 211.5t-272.5 77.5v155 q264 18 264 236q0 90 -67.5 144t-182.5 54q-119 0 -186.5 -79.5t-67.5 -229.5v-1141h-176z" />
<glyph unicode="&#xe0;" horiz-adv-x="1085" d="M92 293q0 141 88 224t223 95l297 29q35 2 55.5 23.5t20.5 52.5v22q0 68 -60.5 110t-162.5 42q-231 0 -264 -186l-160 86q66 258 408 258q209 0 312 -100.5t103 -282.5v-666h-176v145q-49 -76 -137 -120.5t-193 -44.5q-166 0 -260 88t-94 225zM272 293q0 -68 50.5 -108 t150.5 -40q123 0 213 84t90 185v75l-342 -40q-162 -21 -162 -156zM272 1462l82 131l434 -280l-79 -123z" />
<glyph unicode="&#xe1;" horiz-adv-x="1085" d="M92 293q0 141 88 224t223 95l297 29q35 2 55.5 23.5t20.5 52.5v22q0 68 -60.5 110t-162.5 42q-231 0 -264 -186l-160 86q66 258 408 258q209 0 312 -100.5t103 -282.5v-666h-176v145q-49 -76 -137 -120.5t-193 -44.5q-166 0 -260 88t-94 225zM272 293q0 -68 50.5 -108 t150.5 -40q123 0 213 84t90 185v75l-342 -40q-162 -21 -162 -156zM309 1313l434 280l82 -131l-436 -272z" />
<glyph unicode="&#xe2;" horiz-adv-x="1085" d="M92 293q0 141 88 224t223 95l297 29q35 2 55.5 23.5t20.5 52.5v22q0 68 -60.5 110t-162.5 42q-231 0 -264 -186l-160 86q66 258 408 258q209 0 312 -100.5t103 -282.5v-666h-176v145q-49 -76 -137 -120.5t-193 -44.5q-166 0 -260 88t-94 225zM178 1284l361 309l360 -309 l-96 -106l-264 229l-265 -229zM272 293q0 -68 50.5 -108t150.5 -40q123 0 213 84t90 185v75l-342 -40q-162 -21 -162 -156z" />
<glyph unicode="&#xe3;" horiz-adv-x="1085" d="M92 293q0 141 88 224t223 95l297 29q35 2 55.5 23.5t20.5 52.5v22q0 68 -60.5 110t-162.5 42q-231 0 -264 -186l-160 86q66 258 408 258q209 0 312 -100.5t103 -282.5v-666h-176v145q-49 -76 -137 -120.5t-193 -44.5q-166 0 -260 88t-94 225zM238 1321q121 129 211 129 q51 0 120.5 -42t104.5 -42q59 0 129 70l82 -84q-121 -129 -211 -129q-53 0 -121 42t-104 42q-59 0 -130 -70zM272 293q0 -68 50.5 -108t150.5 -40q123 0 213 84t90 185v75l-342 -40q-162 -21 -162 -156z" />
<glyph unicode="&#xe4;" horiz-adv-x="1085" d="M92 293q0 141 88 224t223 95l297 29q35 2 55.5 23.5t20.5 52.5v22q0 68 -60.5 110t-162.5 42q-231 0 -264 -186l-160 86q66 258 408 258q209 0 312 -100.5t103 -282.5v-666h-176v145q-49 -76 -137 -120.5t-193 -44.5q-166 0 -260 88t-94 225zM178 1321q0 59 40 99 t99.5 40t99.5 -40t40 -99t-40 -99t-99.5 -40t-99.5 40t-40 99zM272 293q0 -68 50.5 -108t150.5 -40q123 0 213 84t90 185v75l-342 -40q-162 -21 -162 -156zM653 1321q0 59 40 99t99.5 40t99.5 -40t40 -99t-40 -99t-99.5 -40t-99.5 40t-40 99z" />
<glyph unicode="&#xe5;" horiz-adv-x="1085" d="M92 293q0 141 88 224t223 95l297 29q35 2 55.5 23.5t20.5 52.5v22q0 68 -60.5 110t-162.5 42q-231 0 -264 -186l-160 86q66 258 408 258q209 0 312 -100.5t103 -282.5v-666h-176v145q-49 -76 -137 -120.5t-193 -44.5q-166 0 -260 88t-94 225zM272 293q0 -68 50.5 -108 t150.5 -40q123 0 213 84t90 185v75l-342 -40q-162 -21 -162 -156zM313 1398.5q0 98.5 63.5 163t162 64.5t163 -64.5t64.5 -163t-64.5 -161.5t-163 -63t-162 63t-63.5 161.5zM430 1399q0 -49 29.5 -79t79 -30t79 30t29.5 79t-29.5 78.5t-79 29.5t-79 -29.5t-29.5 -78.5z" />
<glyph unicode="&#xe6;" horiz-adv-x="1771" d="M92 295q0 139 91 221t223 94l294 29q35 2 55.5 24.5t20.5 51.5v24q0 70 -59.5 111t-165.5 41q-231 0 -264 -189l-160 86q68 260 405 261q262 0 357 -164q123 164 354 164q215 0 345 -152t132 -385v-53h-784q4 -147 90 -233.5t217 -86.5q186 0 320 166l94 -143 q-80 -92 -174 -139.5t-240 -47.5q-258 0 -393 213q-35 -47 -60.5 -74.5t-72.5 -63.5t-112.5 -53t-151.5 -17q-162 0 -261.5 89t-99.5 226zM272 295q0 -70 55.5 -110t155.5 -40q123 0 208 80t85 189v73l-340 -38q-80 -8 -122 -52.5t-42 -101.5zM950 600h580q-10 129 -86 207 t-201 78t-200 -76t-93 -209z" />
<glyph unicode="&#xe7;" horiz-adv-x="1011" d="M61 512q0 229 152 383t377 154q221 0 362 -152l-110 -139q-100 121 -252 121q-147 0 -246.5 -101.5t-99.5 -265.5t99 -265.5t247 -101.5q152 0 262 127l109 -141q-119 -123 -277 -147l-121 -269h-153l122 265q-205 20 -338 168.5t-133 363.5z" />
<glyph unicode="&#xe8;" horiz-adv-x="1110" d="M61 512q0 223 139.5 380t370.5 157q217 0 351.5 -153t136.5 -384v-53h-821q6 -145 101 -232.5t232 -87.5q186 0 326 162l94 -139q-82 -90 -178 -138.5t-242 -48.5q-223 0 -366.5 149.5t-143.5 387.5zM250 600h616q-16 129 -94 207t-201 78q-127 0 -212.5 -78t-108.5 -207 zM252 1462l82 131l434 -280l-80 -123z" />
<glyph unicode="&#xe9;" horiz-adv-x="1110" d="M61 512q0 223 139.5 380t370.5 157q217 0 351.5 -153t136.5 -384v-53h-821q6 -145 101 -232.5t232 -87.5q186 0 326 162l94 -139q-82 -90 -178 -138.5t-242 -48.5q-223 0 -366.5 149.5t-143.5 387.5zM250 600h616q-16 129 -94 207t-201 78q-127 0 -212.5 -78t-108.5 -207 zM360 1313l435 280l82 -131l-437 -272z" />
<glyph unicode="&#xea;" horiz-adv-x="1110" d="M61 512q0 223 139.5 380t370.5 157q217 0 351.5 -153t136.5 -384v-53h-821q6 -145 101 -232.5t232 -87.5q186 0 326 162l94 -139q-82 -90 -178 -138.5t-242 -48.5q-223 0 -366.5 149.5t-143.5 387.5zM209 1284l360 309l361 -309l-96 -106l-265 229l-264 -229zM250 600 h616q-16 129 -94 207t-201 78q-127 0 -212.5 -78t-108.5 -207z" />
<glyph unicode="&#xeb;" horiz-adv-x="1110" d="M61 512q0 223 139.5 380t370.5 157q217 0 351.5 -153t136.5 -384v-53h-821q6 -145 101 -232.5t232 -87.5q186 0 326 162l94 -139q-82 -90 -178 -138.5t-242 -48.5q-223 0 -366.5 149.5t-143.5 387.5zM186 1321q0 59 40 99t99.5 40t99.5 -40t40 -99t-40 -99t-99.5 -40 t-99.5 40t-40 99zM250 600h616q-16 129 -94 207t-201 78q-127 0 -212.5 -78t-108.5 -207zM662 1321q0 59 39.5 99t99 40t99.5 -40t40 -99t-40 -99t-99.5 -40t-99 40t-39.5 99z" />
<glyph unicode="&#xec;" horiz-adv-x="526" d="M-92 1462l82 131l434 -280l-80 -123zM178 0v1024h176v-1024h-176z" />
<glyph unicode="&#xed;" horiz-adv-x="546" d="M92 1313l434 280l82 -131l-436 -272zM172 0v1024h176v-1024h-176z" />
<glyph unicode="&#xee;" horiz-adv-x="598" d="M-61 1284l360 309l360 -309l-96 -106l-264 229l-264 -229zM211 0v1024h176v-1024h-176z" />
<glyph unicode="&#xef;" horiz-adv-x="630" d="M-61 1321q0 59 40.5 99t98 40t98.5 -40t41 -99t-41 -99t-98.5 -40t-98 40t-40.5 99zM233 0v1024h177v-1024h-177zM414 1321q0 59 41 99t98 40t98 -40t41 -99t-41 -99t-98 -40t-98 40t-41 99z" />
<glyph unicode="&#xf1;" horiz-adv-x="1181" d="M143 0v1024h170v-135q111 160 326 160q203 0 301 -119t98 -328v-602h-180v610q0 133 -60.5 204t-179.5 71q-162 0 -239 -121q-59 -94 -60 -287v-477h-176zM297 1321q121 129 211 129q51 0 120.5 -42t104.5 -42q59 0 129 70l82 -84q-121 -129 -211 -129q-53 0 -120.5 42 t-104.5 42q-59 0 -129 -70z" />
<glyph unicode="&#xf2;" horiz-adv-x="1196" d="M61 512q0 223 157 380t380 157t380 -157t157 -380t-157 -380t-380 -157t-380 157t-157 380zM244 512q0 -156 101 -261.5t253 -105.5t253 105.5t101 261.5t-101 261.5t-253 105.5t-253 -105.5t-101 -261.5zM289 1462l82 131l434 -280l-80 -123z" />
<glyph unicode="&#xf3;" horiz-adv-x="1196" d="M61 512q0 223 157 380t380 157t380 -157t157 -380t-157 -380t-380 -157t-380 157t-157 380zM244 512q0 -156 101 -261.5t253 -105.5t253 105.5t101 261.5t-101 261.5t-253 105.5t-253 -105.5t-101 -261.5zM397 1313l434 280l82 -131l-436 -272z" />
<glyph unicode="&#xf4;" horiz-adv-x="1196" d="M61 512q0 223 157 380t380 157t380 -157t157 -380t-157 -380t-380 -157t-380 157t-157 380zM244 512q0 -156 101 -261.5t253 -105.5t253 105.5t101 261.5t-101 261.5t-253 105.5t-253 -105.5t-101 -261.5zM250 1284l360 309l361 -309l-97 -106l-264 229l-264 -229z" />
<glyph unicode="&#xf5;" horiz-adv-x="1196" d="M61 512q0 223 157 380t380 157t380 -157t157 -380t-157 -380t-380 -157t-380 157t-157 380zM244 512q0 -156 101 -261.5t253 -105.5t253 105.5t101 261.5t-101 261.5t-253 105.5t-253 -105.5t-101 -261.5zM274 1321q121 129 211 129q51 0 121 -42t105 -42q59 0 129 70 l82 -84q-121 -129 -211 -129q-53 0 -121 42t-105 42q-59 0 -129 -70z" />
<glyph unicode="&#xf6;" horiz-adv-x="1196" d="M61 512q0 223 157 380t380 157t380 -157t157 -380t-157 -380t-380 -157t-380 157t-157 380zM231 1321q0 59 40 99t99.5 40t99.5 -40t40 -99t-40 -99t-99.5 -40t-99.5 40t-40 99zM244 512q0 -156 101 -261.5t253 -105.5t253 105.5t101 261.5t-101 261.5t-253 105.5 t-253 -105.5t-101 -261.5zM707 1321q0 59 39.5 99t99 40t99.5 -40t40 -99t-40 -99t-99.5 -40t-99 40t-39.5 99z" />
<glyph unicode="&#xf7;" horiz-adv-x="1327" d="M102 551v184h1123v-184h-1123zM483 266.5q0 67.5 46 114.5t114 47t115 -47t47 -114.5t-47 -114t-115 -46.5t-114 46.5t-46 114zM483 1017.5q0 67.5 46 115t114 47.5t115 -47.5t47 -115t-47 -113.5t-115 -46t-114 46t-46 113.5z" />
<glyph unicode="&#xf8;" horiz-adv-x="1196" d="M61 514q0 223 157 380t380 157q160 0 291 -86l78 92l108 -94l-78 -93q137 -150 138 -356q0 -223 -157 -380t-380 -157q-160 0 -289 84l-80 -94l-110 92l80 95q-138 153 -138 360zM244 514q0 -131 69 -225l463 545q-84 47 -178 47q-152 0 -253 -105.5t-101 -261.5z M420 193q80 -45 178 -46q152 0 253 105.5t101 261.5q0 121 -69 221z" />
<glyph unicode="&#xf9;" horiz-adv-x="1167" d="M143 418v606h181v-606q0 -137 50 -208t181 -71q156 0 233 121q59 94 60 287v477h176v-1024h-170v147q-117 -172 -319 -172q-211 0 -301.5 115t-90.5 328zM324 1462l82 131l434 -280l-80 -123z" />
<glyph unicode="&#xfa;" horiz-adv-x="1167" d="M143 418v606h181v-606q0 -137 50 -208t181 -71q156 0 233 121q59 94 60 287v477h176v-1024h-170v147q-117 -172 -319 -172q-211 0 -301.5 115t-90.5 328zM309 1313l434 280l82 -131l-436 -272z" />
<glyph unicode="&#xfb;" horiz-adv-x="1167" d="M143 418v606h181v-606q0 -137 50 -208t181 -71q156 0 233 121q59 94 60 287v477h176v-1024h-170v147q-117 -172 -319 -172q-211 0 -301.5 115t-90.5 328zM219 1284l361 309l360 -309l-96 -106l-264 229l-265 -229z" />
<glyph unicode="&#xfc;" horiz-adv-x="1167" d="M143 418v606h181v-606q0 -137 50 -208t181 -71q156 0 233 121q59 94 60 287v477h176v-1024h-170v147q-117 -172 -319 -172q-211 0 -301.5 115t-90.5 328zM195 1321q0 59 39.5 99t99 40t99.5 -40t40 -99t-40 -99t-99.5 -40t-99 40t-39.5 99zM670 1321q0 59 40 99t99 40 t99 -40t40 -99t-40 -99t-99 -40t-99 40t-40 99z" />
<glyph unicode="&#xfd;" horiz-adv-x="1075" d="M20 1024h213l326 -680l320 680h186l-664 -1438h-190l254 553zM375 1313l434 280l82 -131l-436 -272z" />
<glyph unicode="&#xff;" horiz-adv-x="1075" d="M20 1024h213l326 -680l320 680h186l-664 -1438h-190l254 553zM180 1321q0 59 41 99t98.5 40t98.5 -40t41 -99t-41 -99t-98.5 -40t-98.5 40t-41 99zM655 1321q0 59 41 99t98.5 40t98.5 -40t41 -99t-41 -99t-98.5 -40t-98.5 40t-41 99z" />
<glyph unicode="&#x131;" horiz-adv-x="524" d="M174 0v1024h176v-1024h-176z" />
<glyph unicode="&#x152;" horiz-adv-x="2340" d="M102 717q0 307 205 512t510 205q322 0 531 -226v226h880v-185h-696v-440h696v-184h-696v-441h696v-184h-880v225q-205 -225 -531 -225q-305 0 -510 205t-205 512zM287 716.5q0 -229.5 150.5 -381t380 -151.5t380 151.5t150.5 381t-150.5 381t-380 151.5t-380 -151.5 t-150.5 -381z" />
<glyph unicode="&#x153;" horiz-adv-x="1939" d="M61 512q0 231 147.5 384t373.5 153q279 0 424 -226q129 225 405 226q217 0 346 -154t131 -387v-53h-784q6 -154 87 -235t220 -81q104 0 175 43t143 123l96 -143q-88 -92 -179.5 -139.5t-234.5 -47.5q-279 0 -405 222q-147 -221 -424 -222q-225 0 -373 153t-148 384z M238 512q0 -156 98 -261.5t246 -105.5q158 0 251 101.5t93 265.5t-93.5 265.5t-251 101.5t-250.5 -101.5t-93 -265.5zM1116 596h582q-14 135 -87 212t-200 77q-254 0 -295 -289z" />
<glyph unicode="&#x160;" horiz-adv-x="1165" d="M133 342l162 86q31 -119 105.5 -181.5t170.5 -62.5q111 0 184.5 57.5t73.5 151.5q0 172 -254 236q-426 109 -425 409q0 176 130 286t310 110q152 0 273.5 -94.5t168.5 -252.5l-174 -71q-29 111 -104.5 172t-163.5 61q-121 0 -188.5 -63.5t-67.5 -147.5q0 -94 73.5 -146 t206.5 -85q178 -45 289 -146.5t111 -267.5q0 -184 -131 -288.5t-312 -104.5q-92 0 -175 31.5t-155.5 111.5t-107.5 199zM221 1849l96 107l265 -230l264 230l96 -107l-360 -309z" />
<glyph unicode="&#x161;" horiz-adv-x="956" d="M72 217l145 92q37 -86 107.5 -127t152.5 -41q104 0 168 39t64 105q0 63 -60.5 97t-175.5 54q-178 35 -280.5 102.5t-102.5 204.5q0 129 109.5 218.5t289.5 89.5q276 0 396 -222l-146 -92q-35 72 -103.5 111t-146.5 39q-106 0 -164.5 -42t-58.5 -102q0 -43 36 -71.5 t77 -41t123 -30.5q193 -43 287 -109.5t94 -205.5q0 -135 -114 -221.5t-292 -86.5q-127 0 -238.5 57.5t-166.5 182.5zM135 1481l96 106l265 -229l264 229l96 -106l-360 -310z" />
<glyph unicode="&#x178;" horiz-adv-x="1355" d="M10 1434h226l442 -639l442 639h226l-576 -830v-604h-184v604zM348 1511.5q0 57.5 41 98.5t98.5 41t98.5 -41t41 -98.5t-41 -98.5t-98.5 -41t-98.5 41t-41 98.5zM750 1511.5q0 57.5 40.5 98.5t98 41t98.5 -41t41 -98.5t-41 -98.5t-98.5 -41t-98 41t-40.5 98.5z" />
<glyph unicode="&#x17d;" horiz-adv-x="1355" d="M102 0v141l877 1108h-877v185h1151v-142l-876 -1108h876v-184h-1151zM326 1849l96 107l264 -230l264 230l97 -107l-361 -309z" />
<glyph unicode="&#x17e;" horiz-adv-x="929" d="M61 0v158l570 702h-553v164h770v-158l-569 -702h589v-164h-807zM121 1481l96 106l264 -229l264 229l97 -106l-361 -310z" />
<glyph unicode="&#x2c6;" horiz-adv-x="761" d="M20 1284l361 309l360 -309l-96 -106l-264 229l-264 -229z" />
<glyph unicode="&#x2c7;" horiz-adv-x="761" d="M20 1487l97 106l264 -229l264 229l96 -106l-360 -309z" />
<glyph unicode="&#x2da;" horiz-adv-x="575" d="M61 1398.5q0 98.5 63.5 163t162 64.5t163 -64.5t64.5 -163t-64.5 -161.5t-163 -63t-162 63t-63.5 161.5zM178 1399q0 -49 30 -79t79 -30t78.5 30t29.5 79t-29.5 78.5t-78.5 29.5t-79 -29.5t-30 -78.5z" />
<glyph unicode="&#x2dc;" horiz-adv-x="729" d="M41 1321q121 129 211 129q51 0 120.5 -42t104.5 -42q59 0 129 70l82 -84q-121 -129 -211 -129q-53 0 -120.5 42t-104.5 42q-59 0 -129 -70z" />
<glyph unicode="&#x2000;" horiz-adv-x="1005" />
<glyph unicode="&#x2001;" horiz-adv-x="2013" />
<glyph unicode="&#x2002;" horiz-adv-x="1005" />
<glyph unicode="&#x2003;" horiz-adv-x="2013" />
<glyph unicode="&#x2004;" horiz-adv-x="669" />
<glyph unicode="&#x2005;" horiz-adv-x="501" />
<glyph unicode="&#x2006;" horiz-adv-x="333" />
<glyph unicode="&#x2007;" horiz-adv-x="333" />
<glyph unicode="&#x2008;" horiz-adv-x="249" />
<glyph unicode="&#x2009;" horiz-adv-x="401" />
<glyph unicode="&#x200a;" horiz-adv-x="110" />
<glyph unicode="&#x2010;" horiz-adv-x="1286" d="M164 541v184h958v-184h-958z" />
<glyph unicode="&#x2011;" horiz-adv-x="1286" d="M164 541v184h958v-184h-958z" />
<glyph unicode="&#x2012;" horiz-adv-x="1286" d="M164 541v184h958v-184h-958z" />
<glyph unicode="&#x2013;" horiz-adv-x="1900" d="M143 541v184h1614v-184h-1614z" />
<glyph unicode="&#x2014;" horiz-adv-x="2822" d="M143 541v184h2536v-184h-2536z" />
<glyph unicode="&#x2018;" horiz-adv-x="438" d="M61 1010q0 33 25 75l209 375l102 -57l-139 -246q49 -14 81 -57t32 -90q0 -59 -45 -107.5t-109 -48.5q-72 0 -114 46.5t-42 109.5z" />
<glyph unicode="&#x2019;" horiz-adv-x="438" d="M61 911l140 246q-49 14 -81 57t-32 91q0 59 45 107t109 48q72 0 113.5 -46t41.5 -109q0 -33 -24 -76l-209 -375z" />
<glyph unicode="&#x201a;" horiz-adv-x="602" d="M143 -246l140 246q-49 14 -81 57t-32 90q0 59 45 107.5t109 48.5q57 0 106 -49t49 -107q0 -33 -24 -75l-209 -375z" />
<glyph unicode="&#x201c;" horiz-adv-x="1032" d="M143 1010q0 33 25 75l209 375l102 -57l-139 -246q49 -14 81 -57t32 -90q0 -59 -45.5 -107.5t-108.5 -48.5q-57 0 -106.5 48.5t-49.5 107.5zM573 1010q0 33 25 75l209 375l102 -57l-139 -246q49 -14 81 -57t32 -90q0 -59 -45 -107.5t-109 -48.5q-57 0 -106.5 48.5 t-49.5 107.5z" />
<glyph unicode="&#x201d;" horiz-adv-x="1032" d="M123 911l139 246q-49 14 -80.5 57t-31.5 91q0 59 45 107t108 48q57 0 106.5 -48t49.5 -107q0 -33 -25 -76l-209 -375zM553 911l139 246q-49 14 -80.5 57t-31.5 91q0 59 45 107t108 48q57 0 106.5 -48t49.5 -107q0 -33 -25 -76l-209 -375z" />
<glyph unicode="&#x201e;" horiz-adv-x="1032" d="M143 -246l140 246q-49 14 -81 57t-32 90q0 59 45 107.5t109 48.5q57 0 106 -49t49 -107q0 -33 -24 -75l-209 -375zM573 -246l140 246q-49 14 -81 57t-32 90q0 59 45 107.5t109 48.5q57 0 106 -49t49 -107q0 -33 -24 -75l-209 -375z" />
<glyph unicode="&#x2022;" horiz-adv-x="892" d="M193 655.5q0 108.5 72.5 181t181 72.5t181 -72.5t72.5 -181t-72.5 -181.5t-181 -73t-181 73t-72.5 181.5z" />
<glyph unicode="&#x2026;" horiz-adv-x="1984" d="M205 159.5q0 67.5 46 115t113.5 47.5t114.5 -47.5t47 -115t-47 -113.5t-114.5 -46t-113.5 46t-46 113.5zM831 159.5q0 67.5 46.5 115t114 47.5t114.5 -47.5t47 -115t-47 -113.5t-114.5 -46t-114 46t-46.5 113.5zM1458 159.5q0 67.5 46 115t114 47.5t115 -47.5t47 -115 t-47 -113.5t-115 -46t-114 46t-46 113.5z" />
<glyph unicode="&#x202f;" horiz-adv-x="401" />
<glyph unicode="&#x2030;" horiz-adv-x="2117" d="M10 1143q0 131 92.5 224t223.5 93t224 -93t93 -224t-93 -223.5t-224 -92.5t-223.5 92.5t-92.5 223.5zM88 84l102 -84l1072 1352l-103 82zM145 1143q0 -76 52.5 -128t128 -52t128 52t52.5 128t-52.5 128t-128 52t-128 -52t-52.5 -128zM702 289q0 131 92.5 224t223.5 93 t224 -93t93 -224t-93 -223.5t-224 -92.5t-223.5 92.5t-92.5 223.5zM838 289q0 -76 52 -128t128 -52t128 52t52 128t-52 128t-128 52t-128 -52t-52 -128zM1475 289q0 131 92 224t223 93t224 -93t93 -224t-93 -223.5t-224 -92.5t-223 92.5t-92 223.5zM1610 289q0 -76 52 -128 t128 -52t128 52t52 128t-52 128t-128 52t-128 -52t-52 -128z" />
<glyph unicode="&#x2039;" horiz-adv-x="761" d="M82 512l379 430l117 -106l-293 -324l293 -326l-117 -104z" />
<glyph unicode="&#x203a;" horiz-adv-x="761" d="M184 186l293 326l-293 324l117 106l379 -430l-379 -430z" />
<glyph unicode="&#x205f;" horiz-adv-x="501" />
<glyph unicode="&#x20ac;" horiz-adv-x="1462" d="M102 496l66 143h127q-4 49 -4 78q0 43 2 65h-170l65 144h129q59 227 231.5 368.5t399.5 141.5q246 0 453 -164l-78 -174q-158 154 -375 153q-160 0 -276.5 -87t-165.5 -238h741l-65 -144h-705q-2 -23 -2 -65q0 -53 4 -78h633l-65 -143h-535q51 -143 165 -227.5t271 -84.5 q104 0 232 64l30 -189q-154 -59 -262 -59q-225 0 -396 137t-233 359h-217z" />
<glyph unicode="&#x2122;" horiz-adv-x="1968" d="M61 1290v144h734v-144h-295v-653h-144v653h-295zM883 637v797h137l346 -605l340 605h139v-797h-143v498l-283 -498h-110l-283 498v-498h-143z" />
<glyph unicode="&#x2212;" horiz-adv-x="1142" d="M102 559v184h938v-184h-938z" />
<glyph unicode="&#x2260;" horiz-adv-x="1200" d="M102 283v184h342l136 256h-478v184h576l121 226l137 -72l-82 -154h244v-184h-342l-138 -256h480v-184h-578l-121 -226l-137 68l84 158h-244z" />
<glyph unicode="&#xe000;" horiz-adv-x="1025" d="M0 1025h1025v-1025h-1025v1025z" />
<glyph unicode="&#xfb01;" horiz-adv-x="1247" d="M31 870v154h188v57q0 371 330 371q66 0 158 -14v-160q-72 10 -136 10q-92 0 -134 -45t-42 -162v-57h678v-1024h-176v870h-502v-870h-176v870h-188zM846 1321q0 59 40 99t99 40t99 -40t40 -99t-40 -99t-99 -40t-99 40t-40 99z" />
<glyph unicode="&#xfb02;" horiz-adv-x="1189" d="M31 870v154h188v57q0 371 330 371q66 0 158 -14v-160q-72 10 -136 10q-92 0 -134 -45t-42 -162v-57h297v-154h-297v-870h-176v870h-188zM866 0v1434h181v-1434h-181z" />
<glyph horiz-adv-x="1812" d="M143 1391q0 33 21.5 53t54.5 20q31 0 53.5 -21.5t22.5 -51.5q0 -47 -37 -70v-49q211 86 360 86q86 0 149.5 -44t63.5 -126v-51q113 25 209 24q283 0 283 -170v-98q98 25 158 25q229 0 229 -162v-492q-106 66 -229 66q-39 0 -119 -20.5t-123 -20.5q-98 0 -98 94v176 q-47 10 -101 10q-47 0 -144 -18.5t-151 -18.5q-45 0 -71.5 26t-26.5 69v139h-29q-127 0 -360 -90v-676h-80v1323q-35 23 -35 68zM258 737q225 86 360 86q90 0 154 -28v393q0 57 -46 84.5t-108 27.5q-133 0 -360 -92v-471zM352 1194h70l94 -131l92 131h70l-131 -195v-139h-62 v139zM700 623q0 -33 45 -33q47 0 144.5 17.5t150.5 17.5q133 0 226 -52v404q0 23 -5.5 39t-23.5 39.5t-69.5 36t-129.5 12.5q-80 0 -207 -25v-350q0 -37 -65.5 -59t-65.5 -47zM705 694q10 6 27.5 11.5t27.5 9.5t10 12q0 23 -65 33v-66zM860 854q0 72 46 118t116 46 q74 0 120 -46t46 -118t-46 -119t-120 -47q-70 0 -116 47t-46 119zM918 854q0 -45 29.5 -75.5t74.5 -30.5q47 0 77.5 30.5t30.5 75.5t-30.5 74.5t-77.5 29.5q-45 0 -74.5 -29.5t-29.5 -74.5zM1196 377q0 -33 43 -33q39 0 120 21.5t124 21.5q86 0 172 -31v398q0 59 -44 81.5 t-130 22.5q-59 0 -158 -24v-342q0 -39 -63.5 -64.5t-63.5 -50.5zM1196 451q12 8 30.5 15t29 13t10.5 15q0 31 -70 53v-96zM1415 479q0 39 41 39q39 0 39 -39q0 -41 -39 -41q-41 0 -41 41zM1425 565v205h60v-205h-60z" />
<glyph horiz-adv-x="0" />
</font>
</defs>
</svg>
