<?xml version="1.0" standalone="no"?>
<!DOCTYPE svg PUBLIC "-//W3C//DTD SVG 1.1//EN" "http://www.w3.org/Graphics/SVG/1.1/DTD/svg11.dtd" >
<svg xmlns="http://www.w3.org/2000/svg">
<metadata>
This is a custom SVG webfont generated by Font Squirrel.
Copyright   : Copyright c 2009 by Reto Moser  Tobias Rechsteiner Groteskcc All rights reserved
Designer    : Reto Moser  Tobias Rechsteiner Groteskcc
Foundry     : Reto Moser  Tobias Rechsteiner Groteskcc
</metadata>
<defs>
<font id="GTHaptikMedium" horiz-adv-x="147" >
<font-face units-per-em="2048" ascent="1536" descent="-512" />
<missing-glyph horiz-adv-x="808" />
<glyph unicode="&#xfb01;" horiz-adv-x="1241" d="M31 823v201h178v49q0 379 336 379q78 0 176 -18v-205q-100 14 -156 14q-74 0 -106.5 -37t-32.5 -133v-49h643v-1024h-221v823h-422v-823h-217v823h-178zM799 1288.5q0 67.5 46 113.5t113.5 46t113.5 -46t46 -113.5t-46 -114t-113.5 -46.5t-113.5 46.5t-46 114z" />
<glyph unicode="&#xfb02;" horiz-adv-x="1198" d="M31 823v201h178v49q0 379 336 379q78 0 176 -18v-205q-100 14 -156 14q-74 0 -106.5 -37t-32.5 -133v-49h281v-201h-281v-823h-217v823h-178zM834 0v1434h221v-1434h-221z" />
<glyph unicode=" "  horiz-adv-x="808" />
<glyph unicode="&#x09;" horiz-adv-x="808" />
<glyph unicode="&#xa0;" horiz-adv-x="808" />
<glyph unicode="!" horiz-adv-x="708" d="M184 143.5q0 71.5 49.5 120.5t121 49t120.5 -49t49 -120.5t-49 -120t-120.5 -48.5t-121 48.5t-49.5 120zM238 424v1010h233v-1010h-233z" />
<glyph unicode="&#x22;" horiz-adv-x="757" d="M143 862v549h195v-549h-195zM418 862v549h196v-549h-196z" />
<glyph unicode="#" horiz-adv-x="1183" d="M61 428l19 184h209l33 228h-209l28 184h203l59 410h189l-55 -410h192l57 410h191l-55 -410h200l-18 -184h-211l-33 -228h209l-27 -184h-206l-62 -428h-186l61 428h-196l-60 -428h-190l61 428h-203zM477 612h195l30 228h-190z" />
<glyph unicode="$" horiz-adv-x="1218" d="M168 371l207 110q18 -121 90 -184.5t168 -63.5q100 0 153.5 46.5t53.5 126.5q0 78 -66.5 123.5t-162 73.5t-191.5 66t-163 127t-67 230q0 182 130.5 295t316.5 113q166 0 293 -101.5t170 -275.5l-219 -90q-23 115 -90.5 174t-153.5 59q-102 0 -157.5 -50t-55.5 -124 q0 -80 66.5 -126t163 -73.5t191.5 -64.5t161.5 -126t66.5 -230q0 -195 -127 -300.5t-313 -105.5q-162 0 -294 91.5t-171 279.5zM512 -156v1723h182v-1723h-182z" />
<glyph unicode="%" horiz-adv-x="1697" d="M72 1091.5q0 141.5 100 242t240 100.5q141 0 240.5 -100.5t99.5 -242t-99.5 -240.5t-240.5 -99q-139 0 -239.5 99t-100.5 240.5zM242 106l133 -106l1102 1327l-134 107zM254 1091.5q0 -65.5 46 -112.5t111.5 -47t112.5 47t47 112.5t-47 112.5t-112.5 47t-111.5 -47 t-46 -112.5zM946 338q0 141 99.5 241.5t240.5 100.5t240.5 -100.5t99.5 -241.5q0 -139 -99.5 -238.5t-240.5 -99.5t-240.5 99.5t-99.5 238.5zM1126 337.5q0 -65.5 47.5 -111.5t113 -46t111.5 47t46 111q0 66 -46 113t-111.5 47t-113 -47.5t-47.5 -113z" />
<glyph unicode="&#x26;" horiz-adv-x="1429" d="M154 391q0 139 70.5 233.5t193.5 178.5l-33 39q-61 70 -94 135t-33 158q0 131 98.5 227t251.5 96q156 0 253 -96t97 -229q0 -117 -58 -202t-163 -165l221 -248q18 66 35 178l203 -37q-27 -193 -80 -321l178 -201l-161 -147l-136 153q-152 -168 -401 -168 q-207 0 -324.5 121t-117.5 295zM387 391q0 -78 59.5 -137t159.5 -59q158 0 248 110l-295 336q-84 -63 -129 -120.5t-43 -129.5zM487 1126q0 -78 66 -149l47 -53q129 96 129 200q0 51 -36 85t-87 34q-47 0 -83 -35t-36 -82z" />
<glyph unicode="'" horiz-adv-x="481" d="M143 862v549h195v-549h-195z" />
<glyph unicode="(" horiz-adv-x="696" d="M82 635q0 270 102.5 520t290.5 440l150 -135q-326 -362 -326 -825q0 -244 81 -443.5t245 -384.5l-150 -135q-188 190 -290.5 441.5t-102.5 521.5z" />
<glyph unicode=")" horiz-adv-x="696" d="M72 -193q164 184 244.5 384t80.5 444q0 463 -325 825l149 135q188 -190 290.5 -440t102.5 -520t-102 -521t-291 -442z" />
<glyph unicode="*" horiz-adv-x="724" d="M0 1108l61 172l211 -72v226h179v-224l213 70l61 -172l-219 -70l131 -178l-137 -108l-138 184l-137 -184l-139 108l131 180z" />
<glyph unicode="+" horiz-adv-x="1257" d="M102 524v234h410v409h233v-409h410v-234h-410v-409h-233v409h-410z" />
<glyph unicode="," horiz-adv-x="673" d="M41 -348l387 702l184 -104l-387 -699z" />
<glyph unicode="-" horiz-adv-x="1085" d="M164 512v233h758v-233h-758z" />
<glyph unicode="." horiz-adv-x="768" d="M205 178q0 76 51 128t127 52t128 -52t52 -128t-52 -127t-128 -51t-127 51t-51 127z" />
<glyph unicode="/" horiz-adv-x="1513" d="M123 150l1087 1284l181 -150l-1088 -1284z" />
<glyph unicode="0" horiz-adv-x="1574" d="M123 717q0 311 192.5 514t473 203t472 -203t191.5 -514t-191.5 -514t-472 -203t-473 203t-192.5 514zM356 717q0 -213 123 -348.5t309.5 -135.5t309.5 135.5t123 348.5t-123 348t-309.5 135t-309.5 -135t-123 -348zM614 716.5q0 -71.5 51.5 -121.5t123 -50t123 50 t51.5 121.5t-51.5 123t-123 51.5t-123 -51.5t-51.5 -123z" />
<glyph unicode="1" horiz-adv-x="978" d="M82 954l483 480h209v-1434h-233v1083l-295 -295z" />
<glyph unicode="2" horiz-adv-x="1273" d="M143 1128q70 133 194 219.5t286 86.5q195 0 320.5 -122t125.5 -314.5t-143 -346.5l-383 -418h512v-233h-873v193l578 620q76 80 76 180q0 94 -61.5 150.5t-149.5 56.5q-98 0 -176 -62.5t-123 -166.5z" />
<glyph unicode="3" horiz-adv-x="1187" d="M143 317l207 158q68 -242 248 -242q82 0 137.5 50.5t55.5 134.5q0 86 -57.5 136t-149.5 50h-80v234h80q92 0 149.5 47t57.5 133q0 82 -53.5 132t-135.5 50q-86 0 -156.5 -57.5t-105.5 -167.5l-188 158q51 129 167.5 215t274.5 86q186 0 308 -116t122 -290 q0 -178 -135 -305q135 -113 135 -311q0 -188 -116.5 -300t-305.5 -112q-166 0 -286 86t-173 231z" />
<glyph unicode="4" horiz-adv-x="1423" d="M61 279v202l805 953h191v-922h284v-233h-284v-279h-234v279h-762zM395 512h428v510z" />
<glyph unicode="5" horiz-adv-x="1230" d="M143 154l119 206q152 -127 309 -127q113 0 188 68t75 191q0 117 -72 183t-199 66q-158 0 -332 -84v777h836v-234h-602v-235q72 10 119 10q215 0 349 -137.5t134 -352.5q0 -229 -148.5 -357t-359.5 -128q-236 0 -416 154z" />
<glyph unicode="6" horiz-adv-x="1228" d="M143 629q0 393 150 600q147 205 397 205q188 0 348 -127l-127 -191q-113 84 -221 84q-119 0 -196 -90q-68 -84 -86 -207q109 55 219 55q213 0 346 -131t133 -344q0 -209 -136 -346t-343 -137q-252 0 -387 201q-97 133 -97 428zM383 481q0 -117 69.5 -182.5t174.5 -65.5 q111 0 178 69t67 179q0 113 -65.5 178.5t-179.5 65.5q-106 0 -175 -67.5t-69 -176.5z" />
<glyph unicode="7" horiz-adv-x="1130" d="M82 1200v234h967v-201l-635 -1233h-262l616 1200h-686z" />
<glyph unicode="8" horiz-adv-x="1167" d="M143 416q0 186 142 303q-141 117 -142 301q0 190 123 302t317.5 112t317.5 -112t123 -302q0 -184 -141 -301q141 -117 141 -303q0 -190 -123 -303t-317.5 -113t-317.5 113t-123 303zM377 416q0 -82 57.5 -132.5t149.5 -50.5t149.5 50.5t57.5 132.5q0 86 -59.5 136 t-147.5 50t-147.5 -50t-59.5 -136zM377 1020q0 -86 59.5 -135t147.5 -49t147.5 49t59.5 135q0 82 -57.5 131t-149.5 49t-149.5 -49t-57.5 -131z" />
<glyph unicode="9" horiz-adv-x="1239" d="M123 950q0 209 137 346.5t344 137.5q246 0 385 -199q96 -143 96 -430q0 -420 -139 -612q-137 -193 -397 -193q-113 0 -194 23.5t-175 76.5l96 213q141 -80 273 -80q127 0 201 84q68 80 73 215q-100 -57 -219 -57q-213 0 -347 131t-134 344zM356 952q0 -113 66.5 -178 t181.5 -65q106 0 176 67.5t70 175.5q0 117 -70.5 182.5t-175.5 65.5q-111 0 -179.5 -68.5t-68.5 -179.5z" />
<glyph unicode=":" horiz-adv-x="686" d="M164 178q0 76 51 128t127 52t128 -52t52 -128t-52 -127t-128 -51t-127 51t-51 127zM164 868.5q0 75.5 51 128t127 52.5t128 -52.5t52 -128t-52 -127t-128 -51.5t-127 51.5t-51 127z" />
<glyph unicode=";" horiz-adv-x="847" d="M61 -348l388 702l184 -104l-387 -699zM326 868.5q0 75.5 51 128t127 52.5t128 -52.5t52 -128t-52 -127t-128 -51.5t-127 51.5t-51 127z" />
<glyph unicode="&#x3c;" horiz-adv-x="1171" d="M102 475v191l883 393l94 -203l-643 -287l643 -284l-94 -203z" />
<glyph unicode="=" horiz-adv-x="1202" d="M102 264v232h998v-232h-998zM102 684v234h998v-234h-998z" />
<glyph unicode="&#x3e;" horiz-adv-x="1171" d="M92 285l643 284l-643 287l94 203l883 -393v-191l-883 -393z" />
<glyph unicode="?" horiz-adv-x="1134" d="M102 954q0 219 120 349.5t325 130.5q193 0 308.5 -107.5t115.5 -294.5q0 -84 -32 -151.5t-76 -111.5t-89 -85t-76.5 -93t-31.5 -112v-55h-230v55q0 92 31 163t75 116t89 84t75.5 87t30.5 103q0 72 -49 120t-141 48q-211 0 -211 -246h-234zM381 143.5q0 71.5 49 120.5 t121 49t121 -49t49 -120.5t-49 -120t-121 -48.5t-121 48.5t-49 120z" />
<glyph unicode="@" horiz-adv-x="1914" d="M164 625q0 360 235.5 596.5t585.5 236.5t568.5 -201.5t218.5 -535.5q0 -248 -99.5 -390.5t-275.5 -142.5q-150 0 -213 109q-94 -111 -260 -111q-137 0 -218 79t-81 200q0 106 68.5 182t193.5 84l229 17q8 0 8 8q0 51 -35.5 83.5t-109.5 32.5q-127 0 -182 -124l-174 86 q94 233 346 233q186 0 275 -89t89 -243v-254q0 -96 72 -96q150 0 149 332q0 240 -155.5 385t-413.5 145q-264 0 -434 -173t-170 -449.5t166 -457.5t422 -181q236 0 465 102l39 -207q-256 -104 -504 -104q-346 0 -575.5 245t-229.5 603zM831 465q0 -33 28 -56.5t79 -23.5 q82 0 134 50t52 116v18l-215 -26q-78 -8 -78 -78z" />
<glyph unicode="A" horiz-adv-x="1601" d="M20 0l668 1434h225l668 -1434h-260l-111 242h-821l-110 -242h-259zM500 475h602l-301 647z" />
<glyph unicode="B" horiz-adv-x="1261" d="M164 0v1434h606q172 0 291 -116t119 -296q0 -182 -148 -305q147 -119 148 -305q0 -180 -119 -296t-291 -116h-606zM397 233h373q78 0 127 49.5t49 129.5t-46 132t-120 56h-383v-367zM397 834h383q74 4 120 56t46 132t-49 129t-127 49h-373v-366z" />
<glyph unicode="C" horiz-adv-x="1363" d="M102 717q0 305 206 511t511 206q299 0 514 -220l-108 -223q-170 209 -406 209q-215 0 -349 -134t-134 -349t134 -349.5t349 -134.5q133 0 264 74l41 -239q-145 -68 -305 -68q-305 0 -511 206t-206 511z" />
<glyph unicode="D" horiz-adv-x="1482" d="M164 0v1434h502q305 0 509.5 -204t204.5 -513t-204.5 -513t-509.5 -204h-502zM397 233h269q209 0 345 136.5t136 347.5t-136.5 347t-344.5 136h-269v-967z" />
<glyph unicode="E" horiz-adv-x="1179" d="M164 0v1434h903v-234h-670v-366h670v-234h-670v-367h670v-233h-903z" />
<glyph unicode="F" horiz-adv-x="1148" d="M164 0v1434h903v-234h-670v-366h670v-234h-670v-600h-233z" />
<glyph unicode="G" horiz-adv-x="1363" d="M102 717q0 305 206 511t511 206q299 0 514 -220l-108 -223q-170 209 -406 209q-215 0 -349 -134t-134 -349t134 -349.5t349 -134.5q33 0 88 11v305h-317v233h551v-708q-178 -74 -322 -74q-305 0 -511 206t-206 511z" />
<glyph unicode="H" horiz-adv-x="1525" d="M164 0v1434h233v-600h731v600h234v-1434h-234v600h-731v-600h-233z" />
<glyph unicode="I" horiz-adv-x="561" d="M164 0v1434h233v-1434h-233z" />
<glyph unicode="J" horiz-adv-x="1021" d="M31 453l209 102q0 -147 51 -234.5t158 -87.5q90 0 143 67t53 163v971h234v-971q0 -207 -117 -335t-313 -128q-113 0 -197 41t-130 108.5t-68.5 144.5t-22.5 159z" />
<glyph unicode="K" horiz-adv-x="1376" d="M164 0v1434h233v-648l641 648h328l-627 -633l615 -801h-293l-486 633l-178 -178v-455h-233z" />
<glyph unicode="L" horiz-adv-x="1110" d="M164 0v1434h233v-1201h682v-233h-915z" />
<glyph unicode="M" horiz-adv-x="2060" d="M164 0v1434h223l643 -1127l643 1127h223v-1434h-233v946l-539 -946h-188l-539 946v-946h-233z" />
<glyph unicode="N" horiz-adv-x="1619" d="M164 0v1434h207l852 -1041v1041h233v-1434h-211l-848 1030v-1030h-233z" />
<glyph unicode="O" horiz-adv-x="1634" d="M102 717q0 307 204 512t511 205t511 -205t204 -512t-204 -512t-511 -205t-511 205t-204 512zM336 717q0 -209 136 -346.5t345 -137.5t345 137.5t136 346.5t-136 346t-345 137t-345 -137t-136 -346z" />
<glyph unicode="P" horiz-adv-x="1236" d="M164 0v1434h520q213 0 352.5 -139.5t139.5 -352.5t-139.5 -353t-352.5 -140h-287v-449h-233zM397 682h287q109 0 183.5 73.5t74.5 186.5t-74.5 185.5t-183.5 72.5h-287v-518z" />
<glyph unicode="Q" horiz-adv-x="1714" d="M102 717q0 307 204 512t511 205t511 -205t204 -512q0 -244 -131 -426l354 -354l-164 -166l-356 356q-180 -127 -418 -127q-307 0 -511 205t-204 512zM336 717q0 -209 136 -346.5t345 -137.5q137 0 248 64l-379 381l164 166l381 -383q68 113 67 256q0 209 -136 346 t-345 137t-345 -137t-136 -346z" />
<glyph unicode="R" horiz-adv-x="1419" d="M164 0v1434h559q211 0 351 -139.5t140 -352.5q0 -137 -60 -247.5t-167 -174.5l422 -520h-301l-365 449h-346v-449h-233zM397 682h158l-59 74l180 149l158 -200q68 31 108.5 94t40.5 143q0 113 -76 185.5t-184 72.5h-326v-518z" />
<glyph unicode="S" horiz-adv-x="1198" d="M133 371l207 110q18 -121 90 -184.5t168 -63.5q100 0 153.5 46.5t53.5 126.5q0 78 -66.5 123.5t-163 73.5t-191.5 66t-161.5 127t-66.5 230q0 182 130 295t316 113q166 0 293 -101.5t170 -275.5l-219 -90q-23 115 -90.5 174t-153.5 59q-102 0 -157.5 -50t-55.5 -124 q0 -80 66.5 -126t162 -73.5t191.5 -64.5t162.5 -126t66.5 -230q0 -195 -127 -300.5t-313 -105.5q-162 0 -294 91.5t-171 279.5z" />
<glyph unicode="T" horiz-adv-x="1337" d="M10 1202v232h1317v-232h-545v-1202h-231v1202h-541z" />
<glyph unicode="U" horiz-adv-x="1603" d="M143 657v777h234v-777q0 -180 122 -303t302 -123q182 0 304 122t122 304v777h233v-777q0 -281 -189.5 -469t-469.5 -188q-279 0 -468.5 188t-189.5 469z" />
<glyph unicode="V" horiz-adv-x="1556" d="M10 1434h260l510 -1072l506 1072h260l-684 -1434h-170z" />
<glyph unicode="W" horiz-adv-x="2486" d="M20 1434h250l412 -1031l459 1031h205l458 -1031l412 1031h250l-570 -1434h-165l-488 1087l-485 -1087h-166z" />
<glyph unicode="X" horiz-adv-x="1523" d="M31 0l581 715l-579 719h299l430 -533l432 533h299l-582 -719l582 -715h-301l-430 530l-428 -530h-303z" />
<glyph unicode="Y" horiz-adv-x="1413" d="M10 1434h285l412 -596l411 596h285l-580 -836v-598h-233v598z" />
<glyph unicode="Z" horiz-adv-x="1366" d="M102 0v174l813 1028h-813v232h1162v-174l-813 -1029h813v-231h-1162z" />
<glyph unicode="[" horiz-adv-x="729" d="M225 -260v1790h443v-195h-238v-1401h238v-194h-443z" />
<glyph unicode="\" horiz-adv-x="1390" d="M61 1284l181 150l1087 -1284l-180 -150z" />
<glyph unicode="]" horiz-adv-x="729" d="M61 -66h238v1401h-238v195h443v-1790h-443v194z" />
<glyph unicode="^" horiz-adv-x="741" d="M20 1243l351 330l350 -330l-141 -145l-209 202l-211 -202z" />
<glyph unicode="_" horiz-adv-x="1220" d="M61 74h1098v-189h-1098v189z" />
<glyph unicode="`" horiz-adv-x="606" d="M20 1405l107 170l459 -297l-105 -162z" />
<glyph unicode="a" horiz-adv-x="1122" d="M106 309q0 141 93.5 219t228.5 90l293 27q47 4 47 45v39q0 51 -53 83t-142 32q-98 0 -157.5 -36t-85.5 -126l-199 102q94 264 430 265q215 0 321.5 -101.5t106.5 -288.5v-659h-221v113q-111 -133 -293 -133q-164 0 -266.5 93t-102.5 236zM332 309q0 -55 45 -85.5 t127 -30.5q106 0 185 68.5t79 158.5v41l-305 -37q-63 -8 -97 -40t-34 -75z" />
<glyph unicode="b" horiz-adv-x="1230" d="M143 0v1434h217v-510q119 125 302 125q227 0 367 -146.5t140 -390.5t-144 -390.5t-372 -146.5q-176 0 -293 127v-102h-217zM350 512q0 -150 78 -237t217 -87q133 0 214 90.5t81 233.5t-81 233.5t-214 90.5q-139 0 -217 -87t-78 -237z" />
<glyph unicode="c" horiz-adv-x="1028" d="M61 512q0 236 150.5 386.5t378.5 150.5q231 0 387 -166l-139 -170q-92 123 -252 123q-125 0 -210 -87t-85 -237t85 -237t210 -87q152 0 262 125l129 -176q-154 -162 -387 -162q-227 0 -378 150.5t-151 386.5z" />
<glyph unicode="d" horiz-adv-x="1228" d="M61 512q0 244 140.5 390.5t367.5 146.5q182 0 299 -117v502h217v-1434h-217v113q-49 -57 -127.5 -97.5t-171.5 -40.5q-227 0 -367.5 146.5t-140.5 390.5zM291 512q0 -143 81 -233.5t214 -90.5q137 0 216 89.5t79 238.5q0 147 -78 233.5t-217 86.5q-133 0 -214 -90.5 t-81 -233.5z" />
<glyph unicode="e" horiz-adv-x="1112" d="M61 514q0 223 140.5 379t369.5 156q219 0 354.5 -152t135.5 -383v-80h-776q14 -115 95 -180.5t191 -65.5q188 0 320 152l117 -172q-176 -193 -437 -193q-221 0 -365.5 150.5t-144.5 388.5zM301 623h518q-39 213 -248 213q-102 0 -173.5 -57.5t-96.5 -155.5z" />
<glyph unicode="f" horiz-adv-x="751" d="M31 823v201h178v49q0 379 336 379q78 0 176 -18v-205q-100 14 -156 14q-74 0 -106.5 -37t-32.5 -133v-49h281v-201h-281v-823h-217v823h-178z" />
<glyph unicode="g" horiz-adv-x="1253" d="M82 512q0 244 142.5 391.5t367.5 147.5q190 0 301 -125v98h217v-944q0 -98 -22.5 -182t-74.5 -163t-152.5 -125t-239.5 -46q-330 0 -482 254l166 129q102 -180 326 -180q145 0 206.5 93t61.5 220v33q-49 -61 -131 -99.5t-176 -38.5q-227 0 -368.5 146.5t-141.5 390.5z M311 512q0 -143 82 -233.5t217 -90.5q137 0 216 89.5t79 239t-77.5 235.5t-217.5 86q-135 0 -217 -91.5t-82 -234.5z" />
<glyph unicode="h" horiz-adv-x="1159" d="M143 0v1434h217v-514q115 129 295 129q186 0 283.5 -120t97.5 -325v-604h-221v612q0 111 -53 167.5t-146 56.5q-139 0 -204 -103q-51 -82 -52 -256v-477h-217z" />
<glyph unicode="i" horiz-adv-x="565" d="M123 1288.5q0 67.5 46 113.5t113.5 46t113.5 -46t46 -113.5t-46 -114t-113.5 -46.5t-113.5 46.5t-46 114zM172 0v1024h221v-1024h-221z" />
<glyph unicode="j" horiz-adv-x="573" d="M-41 -197q133 0 182 41t49 123v1057h222v-1057q0 -197 -102.5 -287t-350.5 -90v213zM141 1288.5q0 67.5 46 113.5t114 46t114 -46t46 -113.5t-46 -114t-114 -46.5t-114 46.5t-46 114z" />
<glyph unicode="k" horiz-adv-x="1093" d="M143 0v1434h217v-840l416 430h297l-440 -459l432 -565h-281l-303 420l-121 -113v-307h-217z" />
<glyph unicode="l" horiz-adv-x="507" d="M143 0v1434h222v-1434h-222z" />
<glyph unicode="m" horiz-adv-x="1867" d="M143 0v1024h217v-104q113 129 287 129q213 0 320 -168q141 168 348 168q410 0 409 -463v-586h-223v606q0 229 -205 230q-123 0 -186 -81t-63 -263v-492h-224v606q0 229 -205 230q-258 0 -258 -359v-477h-217z" />
<glyph unicode="n" horiz-adv-x="1185" d="M143 0v1024h217v-104q119 129 295 129q199 0 293 -122t94 -329v-598h-221v598q0 238 -203 238q-258 0 -258 -359v-477h-217z" />
<glyph unicode="o" horiz-adv-x="1191" d="M61 512q0 223 156 380t379 157t378.5 -157t155.5 -380t-155.5 -380t-378.5 -157t-379 157t-156 380zM291 512q0 -135 87 -229.5t218 -94.5t218 94.5t87 229.5t-87 229.5t-218 94.5t-218 -94.5t-87 -229.5z" />
<glyph unicode="p" horiz-adv-x="1230" d="M143 -410v1434h217v-94q127 119 302 119q227 0 367 -146.5t140 -390.5t-140 -390.5t-367 -146.5q-168 0 -302 125v-510h-217zM350 512q0 -150 78 -237t217 -87q133 0 214 90.5t81 233.5t-81 233.5t-214 90.5q-139 0 -217 -87t-78 -237z" />
<glyph unicode="q" horiz-adv-x="1228" d="M61 512q0 244 140.5 390.5t367.5 146.5q188 0 299 -119v94h217v-1434h-217v519q-47 -55 -125.5 -94.5t-173.5 -39.5q-227 0 -367.5 146.5t-140.5 390.5zM291 512q0 -143 81 -233.5t214 -90.5q139 0 217 87t78 237t-78 237t-217 87q-133 0 -214 -90.5t-81 -233.5z" />
<glyph unicode="r" horiz-adv-x="788" d="M143 0v1024h215v-115q98 141 263 142q66 0 127 -17v-241q-57 20 -127 20q-139 0 -201 -90q-55 -78 -55 -250v-473h-222z" />
<glyph unicode="s" horiz-adv-x="980" d="M72 215l174 127q39 -72 110.5 -113t147.5 -41q84 0 133 30t49 75q0 51 -58.5 79.5t-142.5 46t-168 45.5t-142 96.5t-58 178.5q0 127 107.5 218.5t287.5 91.5q133 0 236.5 -60.5t160.5 -157.5l-166 -124q-82 129 -231 129q-80 0 -127 -31t-47 -76q0 -47 58.5 -72.5 t142.5 -43t166.5 -45t141 -96.5t58.5 -179q0 -141 -111.5 -229.5t-289.5 -88.5q-143 0 -260 67t-172 173z" />
<glyph unicode="t" horiz-adv-x="786" d="M31 823v201h190v274h217v-274h267v-201h-267v-534q0 -88 74 -90q17 -1 36 -1q74 0 167 13v-199q-106 -23 -203 -22q-147 0 -219 71.5t-72 237.5v524h-190z" />
<glyph unicode="u" horiz-adv-x="1171" d="M143 426v598h222v-598q0 -238 194 -238q127 0 189.5 93.5t62.5 246.5v496h217v-1024h-217v115q-121 -139 -289 -140q-197 0 -288 122t-91 329z" />
<glyph unicode="v" horiz-adv-x="1110" d="M20 1024h242l293 -707l293 707h242l-451 -1024h-168z" />
<glyph unicode="w" horiz-adv-x="1763" d="M20 1024h240l262 -674l283 674h151l283 -674l264 674h240l-422 -1024h-164l-274 651q-43 -102 -138.5 -322t-140.5 -329h-162z" />
<glyph unicode="x" horiz-adv-x="1122" d="M20 0l406 512q-43 55 -188.5 239.5t-217.5 272.5h275l266 -344l266 344h275l-406 -512l406 -512h-275l-266 344l-266 -344h-275z" />
<glyph unicode="y" horiz-adv-x="1105" d="M20 1024h263l292 -606l285 606h236l-664 -1434h-239l262 570z" />
<glyph unicode="z" horiz-adv-x="931" d="M61 0v186l498 629h-481v209h772v-186l-498 -629h518v-209h-809z" />
<glyph unicode="{" horiz-adv-x="796" d="M123 541v194q98 6 153.5 47t55.5 109v309q0 330 344 330h80v-191h-90q-57 0 -95.5 -32.5t-38.5 -96.5v-323q0 -172 -120 -244q121 -66 120 -233v-351q0 -61 38 -95t96 -34h90v-190h-80q-344 0 -344 330v319q0 68 -55.5 107t-153.5 45z" />
<glyph unicode="|" horiz-adv-x="610" d="M205 -260v1790h201v-1790h-201z" />
<glyph unicode="}" horiz-adv-x="796" d="M41 -70h90q57 0 95 34t38 95v351q0 168 121 233q-121 72 -121 244v323q0 63 -38 96t-95 33h-90v191h80q344 0 344 -330v-309q0 -68 55 -109t154 -47v-194q-98 -6 -153.5 -45t-55.5 -107v-319q0 -330 -344 -330h-80v190z" />
<glyph unicode="~" horiz-adv-x="1413" d="M154 627q184 180 342 180q94 0 249 -76q119 -57 175 -57q86 0 215 125l125 -164q-193 -188 -340 -189q-94 0 -250 76q-119 57 -174 58q-86 0 -217 -127z" />
<glyph unicode="&#xa1;" horiz-adv-x="460" d="M82 891q0 70 45 114t114.5 44t113.5 -44t44 -114t-44 -115t-113.5 -45t-114.5 44t-45 116zM127 -387v1044h229v-1044h-229z" />
<glyph unicode="&#xa2;" horiz-adv-x="1058" d="M82 514q0 201 113.5 343t296.5 181v179h180v-170q190 -20 325 -162l-139 -170q-70 92 -186 114v-630q115 23 196 118l129 -176q-129 -137 -325 -157v-172h-180v180q-182 37 -296 178t-114 344zM311 514q0 -113 49.5 -190.5t131.5 -110.5v602q-82 -33 -131.5 -111.5 t-49.5 -189.5z" />
<glyph unicode="&#xa3;" horiz-adv-x="1234" d="M82 621v200h190v201q0 184 102.5 300t297.5 116q135 0 232 -73t147 -179l-197 -142q-25 78 -74 126.5t-108 48.5q-80 0 -125 -50.5t-45 -146.5v-201h377v-200h-377v-236q0 -102 -49 -166h309q174 0 293 193l119 -211q-150 -201 -412 -201h-660v211q170 18 170 174v236 h-190z" />
<glyph unicode="&#xa5;" horiz-adv-x="1536" d="M82 1434h285l411 -596l412 596h285l-580 -836v-598h-233v598zM319 289v205h918v-205h-918zM319 571v205h918v-205h-918z" />
<glyph unicode="&#xa8;" horiz-adv-x="911" d="M82 1278q0 68 46 114t113.5 46t113.5 -46t46 -114t-46 -114t-113.5 -46t-113.5 46t-46 114zM532 1278q0 68 46.5 114t113.5 46q66 0 112 -46t46 -114t-46 -114t-112 -46q-68 0 -114 46t-46 114z" />
<glyph unicode="&#xa9;" horiz-adv-x="1597" d="M82 707q0 311 208 521t519 210q313 0 520 -209t207 -522.5t-207 -522.5t-520 -209q-311 0 -519 209.5t-208 522.5zM272 707q0 -233 153 -388t384 -155q233 0 386 154.5t153 388t-153 387t-386 153.5q-231 0 -384 -154.5t-153 -385.5zM420 725q0 176 117.5 293t293.5 117 q166 0 310 -144l-82 -180q-117 137 -228 137q-100 0 -162.5 -61.5t-62.5 -161.5t62.5 -163.5t162.5 -63.5q51 0 164 59l29 -199q-109 -45 -193 -45q-176 0 -293.5 118t-117.5 294z" />
<glyph unicode="&#xab;" horiz-adv-x="1075" d="M82 512l391 446l152 -137l-279 -309q6 -8 117.5 -131t161.5 -180l-152 -135zM471 512l391 446l152 -137l-277 -309q242 -270 277 -311l-152 -135z" />
<glyph unicode="&#xad;" horiz-adv-x="1085" d="M164 512v233h758v-233h-758z" />
<glyph unicode="&#xae;" horiz-adv-x="1597" d="M82 707q0 311 208 521t519 210q313 0 520 -209t207 -522.5t-207 -522.5t-520 -209q-311 0 -519 209.5t-208 522.5zM272 707q0 -233 153 -388t384 -155q233 0 386 154.5t153 388t-153 387t-386 153.5q-231 0 -384 -154.5t-153 -385.5zM522 326v790h316q121 0 200.5 -80 t79.5 -202q0 -141 -104 -222q18 -25 105 -132t126 -154h-223l-186 231h-140v-231h-174zM684 745l12 9v-29q-8 12 -12 20zM696 754l121 100l86 -106q41 27 41 86q0 47 -30.5 77.5t-75.5 30.5h-142v-188z" />
<glyph unicode="&#xb4;" horiz-adv-x="708" d="M82 1278l459 297l106 -170l-461 -289z" />
<glyph unicode="&#xb6;" horiz-adv-x="1060" d="M82 1024q0 164 110.5 275.5t276.5 111.5h530v-1671h-204v1472h-148v-1472h-205v897q-156 8 -258 118.5t-102 268.5z" />
<glyph unicode="&#xb8;" horiz-adv-x="520" d="M82 -270l178 383h199l-172 -383h-205z" />
<glyph unicode="&#xbb;" horiz-adv-x="1077" d="M82 201l278 311l-278 309l151 137l392 -446l-392 -446zM473 201l279 311l-279 309l152 137l391 -446l-391 -446z" />
<glyph unicode="&#xbf;" horiz-adv-x="1013" d="M82 2q0 195 199 360q109 94 108 189v106h229v-106q0 -209 -200 -371q-106 -82 -107 -178q0 -76 50.5 -126t144.5 -50q100 0 161.5 75.5t61.5 198.5h223q0 -217 -122.5 -360t-323.5 -143q-193 0 -308.5 109.5t-115.5 295.5zM344 891q0 70 45 114t114.5 44t114 -44 t44.5 -114t-44.5 -115t-114 -45t-114.5 44t-45 116z" />
<glyph unicode="&#xc0;" horiz-adv-x="1601" d="M20 0l668 1434h225l668 -1434h-260l-111 242h-821l-110 -242h-259zM412 1780l108 174l463 -301l-104 -164zM500 475h602l-301 647z" />
<glyph unicode="&#xc1;" horiz-adv-x="1601" d="M20 0l668 1434h225l668 -1434h-260l-111 242h-821l-110 -242h-259zM500 475h602l-301 647zM555 1653l465 301l108 -174l-466 -291z" />
<glyph unicode="&#xc2;" horiz-adv-x="1601" d="M20 0l668 1434h225l668 -1434h-260l-111 242h-821l-110 -242h-259zM391 1620l385 332l387 -332l-131 -145l-256 225l-256 -223zM500 475h602l-301 647z" />
<glyph unicode="&#xc3;" horiz-adv-x="1601" d="M20 0l668 1434h225l668 -1434h-260l-111 242h-821l-110 -242h-259zM418 1632q143 152 244 152q61 0 135 -47q51 -33 82 -33q45 0 122 78l119 -119q-145 -154 -241 -154q-66 0 -140 50q-53 33 -77 32q-49 0 -125 -80zM500 475h602l-301 647z" />
<glyph unicode="&#xc4;" horiz-adv-x="1601" d="M20 0l668 1434h225l668 -1434h-260l-111 242h-821l-110 -242h-259zM258 1480.5q0 67.5 46 114.5t114 47q70 0 116 -47t46 -114.5t-46.5 -114.5t-115.5 -47q-68 0 -114 47t-46 114.5zM500 475h602l-301 647zM958 1480.5q0 67.5 47.5 114.5t115 47t114.5 -47t47 -114.5 t-47 -114.5t-114.5 -47t-115 47t-47.5 114.5z" />
<glyph unicode="&#xc5;" horiz-adv-x="1601" d="M20 0l668 1434h225l668 -1434h-260l-111 242h-821l-110 -242h-259zM500 475h602l-301 647zM524 1744.5q0 106.5 70 176.5t176.5 70t176 -70t69.5 -176.5t-69.5 -175t-176 -68.5t-176.5 68.5t-70 175zM692 1745q0 -35 21.5 -56.5t56.5 -21.5t55.5 21.5t20.5 56.5 q0 76 -76 76q-35 0 -56.5 -20.5t-21.5 -55.5z" />
<glyph unicode="&#xc6;" horiz-adv-x="2004" d="M-25 0l1039 1434h878v-232h-669v-368h669v-234h-669v-369h669v-231h-903v242l-549 -2l-170 -240h-295zM610 475h381v524z" />
<glyph unicode="&#xc7;" horiz-adv-x="1363" d="M102 717q0 305 206 511t511 206q299 0 514 -220l-108 -223q-170 209 -406 209q-215 0 -349 -134t-134 -349t134 -349.5t349 -134.5q133 0 264 74l41 -239q-145 -68 -305 -68q-305 0 -511 206t-206 511zM530 -270l179 383h198l-172 -383h-205z" />
<glyph unicode="&#xc8;" horiz-adv-x="1179" d="M164 0v1434h903v-234h-670v-366h670v-234h-670v-367h670v-233h-903zM272 1780l107 174l465 -301l-107 -164z" />
<glyph unicode="&#xc9;" horiz-adv-x="1179" d="M164 0v1434h903v-234h-670v-366h670v-234h-670v-367h670v-233h-903zM375 1653l465 301l106 -174l-465 -291z" />
<glyph unicode="&#xca;" horiz-adv-x="1179" d="M164 0v1434h903v-234h-670v-366h670v-234h-670v-367h670v-233h-903zM213 1620l385 332l387 -332l-131 -145l-256 225l-256 -223z" />
<glyph unicode="&#xcb;" horiz-adv-x="1179" d="M164 0v1434h903v-234h-670v-366h670v-234h-670v-367h670v-233h-903zM219 1663q0 68 46 114t114 46q70 0 116 -46t46 -114q0 -70 -46 -116t-116 -46q-68 0 -114 46t-46 116zM676 1663q0 68 46 114t116 46q68 0 113.5 -46t45.5 -114q0 -70 -46 -116t-113 -46q-70 0 -116 46 t-46 116z" />
<glyph unicode="&#xcc;" horiz-adv-x="516" d="M-72 1780l107 174l465 -301l-107 -164zM152 0v1434h233v-1434h-233z" />
<glyph unicode="&#xcd;" horiz-adv-x="546" d="M35 1653l465 301l108 -174l-467 -291zM137 0v1434h234v-1434h-234z" />
<glyph unicode="&#xce;" horiz-adv-x="598" d="M-92 1620l385 332l387 -332l-131 -145l-256 225l-256 -223zM172 0v1434h231v-1434h-231z" />
<glyph unicode="&#xcf;" horiz-adv-x="552" d="M-180 1480.5q0 67.5 47 114.5t114.5 47t114.5 -47t47 -114.5t-47 -114.5t-114.5 -47t-114.5 47t-47 114.5zM156 0v1434h231v-1434h-231zM399 1480.5q0 67.5 47.5 114.5t115 47t114.5 -47t47 -114.5t-47 -114.5t-114.5 -47t-115 47t-47.5 114.5z" />
<glyph unicode="&#xd1;" horiz-adv-x="1617" d="M164 0v1434h205l852 -1039v1039h233v-1434h-211l-848 1026v-1026h-231zM475 1632q143 152 242 152q59 0 137 -47q47 -33 80 -33q43 0 125 78l117 -119q-139 -154 -242 -154q-63 0 -137 50q-57 33 -80 32q-47 0 -123 -80z" />
<glyph unicode="&#xd2;" horiz-adv-x="1634" d="M102 717q0 307 204 512t511 205t511 -205t204 -512t-204 -512t-511 -205t-511 205t-204 512zM336 717q0 -209 136 -346.5t345 -137.5t345 137.5t136 346.5t-136 346t-345 137t-345 -137t-136 -346zM444 1780l109 174l465 -301l-107 -164z" />
<glyph unicode="&#xd3;" horiz-adv-x="1634" d="M102 717q0 307 204 512t511 205t511 -205t204 -512t-204 -512t-511 -205t-511 205t-204 512zM336 717q0 -209 136 -346.5t345 -137.5t345 137.5t136 346.5t-136 346t-345 137t-345 -137t-136 -346zM588 1653l463 301l108 -174l-467 -291z" />
<glyph unicode="&#xd4;" horiz-adv-x="1634" d="M102 717q0 307 204 512t511 205t511 -205t204 -512t-204 -512t-511 -205t-511 205t-204 512zM336 717q0 -209 136 -346.5t345 -137.5t345 137.5t136 346.5t-136 346t-345 137t-345 -137t-136 -346zM426 1620l385 332l387 -332l-131 -145l-256 225l-256 -223z" />
<glyph unicode="&#xd5;" horiz-adv-x="1634" d="M102 717q0 307 204 512t511 205t511 -205t204 -512t-204 -512t-511 -205t-511 205t-204 512zM336 717q0 -209 136 -346.5t345 -137.5t345 137.5t136 346.5t-136 346t-345 137t-345 -137t-136 -346zM451 1671q143 152 241 152q63 0 137 -47q53 -33 80 -33q47 0 125 78 l117 -119q-137 -152 -242 -152q-66 0 -137 47q-57 33 -80 33q-45 0 -123 -78z" />
<glyph unicode="&#xd6;" horiz-adv-x="1671" d="M102 1480.5q0 67.5 47.5 114.5t114.5 47q70 0 116 -47t46 -114.5t-46 -114.5t-116 -47q-68 0 -115 47t-47 114.5zM137 717q0 307 204 512t511 205t511 -205t204 -512t-204 -512t-511 -205t-511 205t-204 512zM371 717q0 -209 136 -346.5t345 -137.5t345 137.5t136 346.5 t-136 346t-345 137t-345 -137t-136 -346zM1245 1480.5q0 67.5 47 114.5t115 47t115 -47t47 -114.5t-47 -114.5t-115 -47t-115 47t-47 114.5z" />
<glyph unicode="&#xd7;" horiz-adv-x="1214" d="M94 301l340 340l-340 344l154 156l342 -342l344 344l156 -158l-342 -344l342 -340l-156 -158l-344 344l-342 -342z" />
<glyph unicode="&#xd8;" horiz-adv-x="1634" d="M102 717q0 307 204 512t511 205t511 -205t204 -512t-204 -512t-511 -205t-511 205t-204 512zM135 80l1184 1397l145 -127l-1179 -1393zM336 717q0 -209 136 -346.5t345 -137.5t345 137.5t136 346.5t-136 346t-345 137t-345 -137t-136 -346z" />
<glyph unicode="&#xd9;" horiz-adv-x="1603" d="M143 657v777h234v-777q0 -180 122 -303t302 -123q182 0 304 122t122 304v777h233v-777q0 -281 -189.5 -469t-469.5 -188q-279 0 -468.5 188t-189.5 469zM446 1780l109 174l465 -301l-107 -164z" />
<glyph unicode="&#xda;" horiz-adv-x="1603" d="M143 657v777h234v-777q0 -180 122 -303t302 -123q182 0 304 122t122 304v777h233v-777q0 -281 -189.5 -469t-469.5 -188q-279 0 -468.5 188t-189.5 469zM569 1653l465 301l107 -174l-465 -291z" />
<glyph unicode="&#xdb;" horiz-adv-x="1603" d="M143 657v777h234v-777q0 -180 122 -303t302 -123q182 0 304 122t122 304v777h233v-777q0 -281 -189.5 -469t-469.5 -188q-279 0 -468.5 188t-189.5 469zM408 1620l385 332l387 -332l-131 -145l-256 225l-256 -223z" />
<glyph unicode="&#xdc;" horiz-adv-x="1603" d="M143 657v777h234v-777q0 -180 122 -303t302 -123q182 0 304 122t122 304v777h233v-777q0 -281 -189.5 -469t-469.5 -188q-279 0 -468.5 188t-189.5 469zM401 1480.5q0 67.5 47.5 114.5t115 47t114.5 -47t47 -114.5t-47 -114.5t-114.5 -47t-115 47t-47.5 114.5z M842 1480.5q0 67.5 47 114.5t114.5 47t114.5 -47t47 -114.5t-47 -114.5t-114.5 -47t-114.5 47t-47 114.5z" />
<glyph unicode="&#xdd;" horiz-adv-x="1413" d="M10 1434h285l412 -596l411 596h285l-580 -836v-598h-233v598zM487 1653l465 301l109 -174l-467 -291z" />
<glyph unicode="&#xdf;" horiz-adv-x="1173" d="M125 -145v1108q0 217 110.5 346t331.5 129q207 0 314.5 -104.5t107.5 -266.5q0 -180 -133 -274q109 -39 175.5 -133.5t66.5 -237.5q0 -207 -132 -321.5t-354 -114.5q-76 0 -149 8v207q80 -4 131 -4q127 0 205 57t78 168q0 119 -99.5 181.5t-259.5 66.5v198 q252 18 252 199q0 74 -56.5 117t-154.5 43t-155.5 -67.5t-57.5 -196.5v-1108h-221z" />
<glyph unicode="&#xe0;" horiz-adv-x="1122" d="M106 309q0 141 93.5 219t228.5 90l293 27q47 4 47 45v39q0 51 -53 83t-142 32q-98 0 -157.5 -36t-85.5 -126l-199 102q94 264 430 265q215 0 321.5 -101.5t106.5 -288.5v-659h-221v113q-111 -133 -293 -133q-164 0 -266.5 93t-102.5 236zM250 1405l106 170l457 -297 l-104 -162zM332 309q0 -55 45 -85.5t127 -30.5q106 0 185 68.5t79 158.5v41l-305 -37q-63 -8 -97 -40t-34 -75z" />
<glyph unicode="&#xe1;" horiz-adv-x="1122" d="M106 309q0 141 93.5 219t228.5 90l293 27q47 4 47 45v39q0 51 -53 83t-142 32q-98 0 -157.5 -36t-85.5 -126l-199 102q94 264 430 265q215 0 321.5 -101.5t106.5 -288.5v-659h-221v113q-111 -133 -293 -133q-164 0 -266.5 93t-102.5 236zM283 1278l456 297l107 -170 l-459 -289zM332 309q0 -55 45 -85.5t127 -30.5q106 0 185 68.5t79 158.5v41l-305 -37q-63 -8 -97 -40t-34 -75z" />
<glyph unicode="&#xe2;" horiz-adv-x="1122" d="M106 309q0 141 93.5 219t228.5 90l293 27q47 4 47 45v39q0 51 -53 83t-142 32q-98 0 -157.5 -36t-85.5 -126l-199 102q94 264 430 265q215 0 321.5 -101.5t106.5 -288.5v-659h-221v113q-111 -133 -293 -133q-164 0 -266.5 93t-102.5 236zM158 1247l381 326l381 -326 l-129 -143l-252 221l-252 -219zM332 309q0 -55 45 -85.5t127 -30.5q106 0 185 68.5t79 158.5v41l-305 -37q-63 -8 -97 -40t-34 -75z" />
<glyph unicode="&#xe3;" horiz-adv-x="1122" d="M106 309q0 141 93.5 219t228.5 90l293 27q47 4 47 45v39q0 51 -53 83t-142 32q-98 0 -157.5 -36t-85.5 -126l-199 102q94 264 430 265q215 0 321.5 -101.5t106.5 -288.5v-659h-221v113q-111 -133 -293 -133q-164 0 -266.5 93t-102.5 236zM215 1278q141 150 238 149 q61 0 135 -47q53 -33 78 -32q45 0 122 77l117 -118q-141 -150 -239 -150q-57 0 -136 47q-47 33 -77 33q-47 0 -121 -78zM332 309q0 -55 45 -85.5t127 -30.5q106 0 185 68.5t79 158.5v41l-305 -37q-63 -8 -97 -40t-34 -75z" />
<glyph unicode="&#xe4;" horiz-adv-x="1122" d="M106 309q0 141 93.5 219t228.5 90l293 27q47 4 47 45v39q0 51 -53 83t-142 32q-98 0 -157.5 -36t-85.5 -126l-199 102q94 264 430 265q215 0 321.5 -101.5t106.5 -288.5v-659h-221v113q-111 -133 -293 -133q-164 0 -266.5 93t-102.5 236zM170 1288.5q0 67.5 46 113.5 t114 46q66 0 111.5 -46t45.5 -113.5t-46 -114t-111 -46.5q-68 0 -114 46.5t-46 114zM332 309q0 -55 45 -85.5t127 -30.5q106 0 185 68.5t79 158.5v41l-305 -37q-63 -8 -97 -40t-34 -75zM621 1288.5q0 67.5 46 113.5t111 46q68 0 114 -46t46 -113.5t-46 -114t-114 -46.5 q-66 0 -111.5 46.5t-45.5 114z" />
<glyph unicode="&#xe5;" horiz-adv-x="1122" d="M106 309q0 141 93.5 219t228.5 90l293 27q47 4 47 45v39q0 51 -53 83t-142 32q-98 0 -157.5 -36t-85.5 -126l-199 102q94 264 430 265q215 0 321.5 -101.5t106.5 -288.5v-659h-221v113q-111 -133 -293 -133q-164 0 -266.5 93t-102.5 236zM297 1351.5q0 104.5 68.5 173 t173 68.5t173 -68.5t68.5 -173t-68.5 -172t-173 -67.5t-173 67.5t-68.5 172zM332 309q0 -55 45 -85.5t127 -30.5q106 0 185 68.5t79 158.5v41l-305 -37q-63 -8 -97 -40t-34 -75zM463 1351.5q0 -75.5 75.5 -75.5t75.5 75.5t-75.5 75.5t-75.5 -75.5z" />
<glyph unicode="&#xe6;" horiz-adv-x="1753" d="M106 309.5q0 143.5 94.5 227.5t227.5 98l281 27q45 4 45 45v22q0 53 -49.5 85t-137.5 32q-195 0 -227 -193l-207 109q74 287 418 287q227 0 340 -138q121 137 334 138q215 0 345 -152t132 -383v-78h-739q12 -115 83.5 -181.5t178.5 -66.5q164 0 303 177l123 -185 q-84 -98 -181.5 -149t-244.5 -51q-236 0 -373 182q-63 -84 -147 -132t-230 -48q-164 0 -266.5 92t-102.5 235.5zM332 309q0 -53 45 -83.5t127 -30.5q106 0 178 67.5t72 157.5v41l-293 -35q-61 -4 -95 -39t-34 -78zM979 625h485q-16 96 -78.5 155.5t-160.5 59.5 q-203 0 -246 -215z" />
<glyph unicode="&#xe7;" horiz-adv-x="1028" d="M61 512q0 236 150.5 386.5t378.5 150.5q231 0 387 -166l-139 -170q-92 123 -252 123q-125 0 -210 -87t-85 -237t85 -237t210 -87q152 0 262 125l129 -176q-154 -162 -387 -162q-227 0 -378 150.5t-151 386.5zM336 -270l178 383h199l-172 -383h-205z" />
<glyph unicode="&#xe8;" horiz-adv-x="1112" d="M61 514q0 223 140.5 379t369.5 156q219 0 354.5 -152t135.5 -383v-80h-776q14 -115 95 -180.5t191 -65.5q188 0 320 152l117 -172q-176 -193 -437 -193q-221 0 -365.5 150.5t-144.5 388.5zM217 1405l107 170l456 -297l-104 -162zM301 623h518q-39 213 -248 213 q-102 0 -173.5 -57.5t-96.5 -155.5z" />
<glyph unicode="&#xe9;" horiz-adv-x="1112" d="M61 514q0 223 140.5 379t369.5 156q219 0 354.5 -152t135.5 -383v-80h-776q14 -115 95 -180.5t191 -65.5q188 0 320 152l117 -172q-176 -193 -437 -193q-221 0 -365.5 150.5t-144.5 388.5zM301 623h518q-39 213 -248 213q-102 0 -173.5 -57.5t-96.5 -155.5zM317 1278 l457 297l109 -170l-461 -289z" />
<glyph unicode="&#xea;" horiz-adv-x="1112" d="M61 514q0 223 140.5 379t369.5 156q219 0 354.5 -152t135.5 -383v-80h-776q14 -115 95 -180.5t191 -65.5q188 0 320 152l117 -172q-176 -193 -437 -193q-221 0 -365.5 150.5t-144.5 388.5zM174 1247l379 326l381 -326l-127 -143l-254 221l-252 -219zM301 623h518 q-39 213 -248 213q-102 0 -173.5 -57.5t-96.5 -155.5z" />
<glyph unicode="&#xeb;" horiz-adv-x="1112" d="M61 514q0 223 140.5 379t369.5 156q219 0 354.5 -152t135.5 -383v-80h-776q14 -115 95 -180.5t191 -65.5q188 0 320 152l117 -172q-176 -193 -437 -193q-221 0 -365.5 150.5t-144.5 388.5zM164 1288.5q0 67.5 46 113.5t114 46q66 0 111.5 -46t45.5 -113.5t-46 -114 t-111 -46.5q-68 0 -114 46.5t-46 114zM301 623h518q-39 213 -248 213q-102 0 -173.5 -57.5t-96.5 -155.5zM614 1288.5q0 67.5 46.5 113.5t113.5 46q66 0 112 -46t46 -113.5t-46 -114t-112 -46.5q-68 0 -114 46.5t-46 114z" />
<glyph unicode="&#xec;" horiz-adv-x="808" d="M123 1405l106 170l457 -297l-104 -162zM387 0v1024h221v-1024h-221z" />
<glyph unicode="&#xed;" horiz-adv-x="811" d="M123 1278l459 297l106 -170l-461 -289zM211 0v1024h221v-1024h-221z" />
<glyph unicode="&#xee;" horiz-adv-x="1005" d="M123 1247l379 326l381 -326l-129 -143l-252 221l-252 -219zM391 0v1024h221v-1024h-221z" />
<glyph unicode="&#xef;" horiz-adv-x="1013" d="M123 1278q0 68 47 114t113 46q68 0 113.5 -46t45.5 -114t-46 -114t-113 -46q-66 0 -113 46t-47 114zM403 0v1024h222v-1024h-222zM573 1278q0 68 46.5 114t113.5 46q66 0 112 -46t46 -114t-46 -114t-112 -46q-68 0 -114 46t-46 114z" />
<glyph unicode="&#xf1;" horiz-adv-x="1185" d="M143 0v1024h217v-104q119 129 295 129q199 0 293 -122t94 -329v-598h-221v598q0 238 -203 238q-258 0 -258 -359v-477h-217zM256 1278q141 150 238 149q61 0 135 -47q53 -33 80 -32q43 0 120 77l117 -118q-141 -150 -237 -150q-59 0 -138 47q-47 33 -77 33 q-43 0 -121 -78z" />
<glyph unicode="&#xf2;" horiz-adv-x="1191" d="M61 512q0 223 156 380t379 157t378.5 -157t155.5 -380t-155.5 -380t-378.5 -157t-379 157t-156 380zM250 1405l106 170l459 -297l-104 -162zM291 512q0 -135 87 -229.5t218 -94.5t218 94.5t87 229.5t-87 229.5t-218 94.5t-218 -94.5t-87 -229.5z" />
<glyph unicode="&#xf3;" horiz-adv-x="1191" d="M61 512q0 223 156 380t379 157t378.5 -157t155.5 -380t-155.5 -380t-378.5 -157t-379 157t-156 380zM291 512q0 -135 87 -229.5t218 -94.5t218 94.5t87 229.5t-87 229.5t-218 94.5t-218 -94.5t-87 -229.5zM352 1278l457 297l106 -170l-458 -289z" />
<glyph unicode="&#xf4;" horiz-adv-x="1191" d="M61 512q0 223 156 380t379 157t378.5 -157t155.5 -380t-155.5 -380t-378.5 -157t-379 157t-156 380zM211 1247l381 326l381 -326l-129 -143l-252 221l-252 -219zM291 512q0 -135 87 -229.5t218 -94.5t218 94.5t87 229.5t-87 229.5t-218 94.5t-218 -94.5t-87 -229.5z" />
<glyph unicode="&#xf5;" horiz-adv-x="1191" d="M61 512q0 223 156 380t379 157t378.5 -157t155.5 -380t-155.5 -380t-378.5 -157t-379 157t-156 380zM236 1278q141 150 237 149q61 0 135 -47q53 -33 78 -32q45 0 123 77l117 -118q-141 -150 -240 -150q-57 0 -135 47q-47 33 -78 33q-47 0 -121 -78zM291 512 q0 -135 87 -229.5t218 -94.5t218 94.5t87 229.5t-87 229.5t-218 94.5t-218 -94.5t-87 -229.5z" />
<glyph unicode="&#xf6;" horiz-adv-x="1191" d="M61 512q0 223 156 380t379 157t378.5 -157t155.5 -380t-155.5 -380t-378.5 -157t-379 157t-156 380zM205 1288.5q0 67.5 47 113.5t113 46q68 0 113.5 -46t45.5 -113.5t-46 -114t-113 -46.5q-66 0 -113 46.5t-47 114zM291 512q0 -135 87 -229.5t218 -94.5t218 94.5 t87 229.5t-87 229.5t-218 94.5t-218 -94.5t-87 -229.5zM655 1288.5q0 67.5 46.5 113.5t113.5 46q66 0 112 -46t46 -113.5t-46 -114t-112 -46.5q-68 0 -114 46.5t-46 114z" />
<glyph unicode="&#xf7;" horiz-adv-x="1327" d="M88 522v228h1116v-228h-1116zM449 278.5q0 75.5 51 128t126.5 52.5t128 -52.5t52.5 -128t-52.5 -127t-128 -51.5t-126.5 51.5t-51 127zM449 991q0 76 51 128t126.5 52t128 -52t52.5 -128t-52.5 -127t-128 -51t-126.5 51t-51 127z" />
<glyph unicode="&#xf8;" horiz-adv-x="1193" d="M61 514q0 223 156 379t379 156q143 0 270 -72q10 14 38 46t38 44l143 -127l-75 -88q123 -150 123 -338q0 -223 -157 -378.5t-380 -155.5q-154 0 -268 69l-76 -92l-148 123l78 92q-121 154 -121 342zM289 514q0 -104 41 -168l391 463q-63 25 -125 25q-133 0 -220 -92.5 t-87 -227.5zM471 217q49 -23 125 -22q133 0 221 92t88 227q0 88 -41 164z" />
<glyph unicode="&#xf9;" horiz-adv-x="1171" d="M143 426v598h222v-598q0 -238 194 -238q127 0 189.5 93.5t62.5 246.5v496h217v-1024h-217v115q-121 -139 -289 -140q-197 0 -288 122t-91 329zM289 1405l106 170l459 -297l-104 -162z" />
<glyph unicode="&#xfa;" horiz-adv-x="1171" d="M143 426v598h222v-598q0 -238 194 -238q127 0 189.5 93.5t62.5 246.5v496h217v-1024h-217v115q-121 -139 -289 -140q-197 0 -288 122t-91 329zM274 1278l457 297l107 -170l-459 -289z" />
<glyph unicode="&#xfb;" horiz-adv-x="1171" d="M143 426v598h222v-598q0 -238 194 -238q127 0 189.5 93.5t62.5 246.5v496h217v-1024h-217v115q-121 -139 -289 -140q-197 0 -288 122t-91 329zM188 1247l381 326l379 -326l-127 -143l-252 221l-254 -219z" />
<glyph unicode="&#xfc;" horiz-adv-x="1171" d="M143 426v598h222v-598q0 -238 194 -238q127 0 189.5 93.5t62.5 246.5v496h217v-1024h-217v115q-121 -139 -289 -140q-197 0 -288 122t-91 329zM176 1288.5q0 67.5 46 113.5t114 46q66 0 113 -46t47 -113.5t-47.5 -114t-112.5 -46.5q-68 0 -114 46.5t-46 114zM627 1288.5 q0 67.5 46 113.5t113 46q66 0 112 -46t46 -113.5t-46 -114t-112 -46.5q-68 0 -113.5 46.5t-45.5 114z" />
<glyph unicode="&#xfd;" horiz-adv-x="1105" d="M20 1024h263l292 -606l285 606h236l-664 -1434h-239l262 570zM330 1278l458 297l107 -170l-461 -289z" />
<glyph unicode="&#xff;" horiz-adv-x="1105" d="M20 1024h263l292 -606q47 98 142.5 303t142.5 303h236l-654 -1415h-239l252 551zM188 1288.5q0 67.5 46.5 113.5t113.5 46q66 0 112 -46t46 -113.5t-46 -114t-112 -46.5q-68 0 -114 46.5t-46 114zM639 1288.5q0 67.5 46 113.5t112 46q68 0 113.5 -46t45.5 -113.5 t-46 -114t-113 -46.5q-66 0 -112 46.5t-46 114z" />
<glyph unicode="&#x131;" horiz-adv-x="524" d="M145 0v1024h222v-1024h-222z" />
<glyph unicode="&#x152;" horiz-adv-x="2484" d="M193 717q0 307 204.5 512t509.5 205q279 0 482 -181v181h903v-232h-670v-368h670v-234h-670v-369h670v-231h-903v178q-201 -178 -482 -178q-305 0 -509.5 205t-204.5 512zM424 717q0 -209 137 -347.5t346 -138.5t345.5 138.5t136.5 347.5t-136.5 347t-345.5 138 t-346 -138t-137 -347z" />
<glyph unicode="&#x153;" horiz-adv-x="2111" d="M164 514q0 231 147.5 383t372.5 152q254 0 401 -189q133 188 383 189q217 0 347.5 -153t132.5 -386v-78h-742q14 -119 82 -181.5t180 -62.5q90 0 160 45.5t146 128.5l120 -182q-94 -100 -188 -150t-238 -50q-256 0 -385 186q-145 -186 -399 -186q-225 0 -372.5 151.5 t-147.5 382.5zM385 514q0 -135 85 -227t214 -92q135 0 216 88t81 231t-81 231.5t-216 88.5t-217 -88.5t-82 -231.5zM1223 621h487q-18 102 -79.5 160.5t-162.5 58.5q-202 0 -245 -219z" />
<glyph unicode="&#x160;" horiz-adv-x="1198" d="M143 371l207 110q18 -121 90 -184.5t168 -63.5q100 0 153.5 46.5t53.5 126.5q0 78 -66.5 123.5t-161.5 73.5t-191.5 66t-163 127t-66.5 230q0 182 130 295t316 113q166 0 293 -101.5t170 -275.5l-219 -90q-23 115 -90.5 174t-153.5 59q-102 0 -157.5 -50t-55.5 -124 q0 -80 66.5 -126t163 -73.5t191.5 -64.5t162 -126t67 -230q0 -195 -127 -300.5t-314 -105.5q-162 0 -294 91.5t-171 279.5zM195 1802l131 144l256 -224l256 224l129 -144l-385 -332z" />
<glyph unicode="&#x161;" horiz-adv-x="1165" d="M164 219l174 127q39 -72 110.5 -112.5t147.5 -40.5q84 0 133 29.5t49 74.5q0 51 -58 78.5t-142 45t-168 45.5t-142.5 96.5t-58.5 178.5q0 127 107.5 218.5t287.5 91.5q133 0 236.5 -60.5t160.5 -156.5l-165 -125q-82 129 -232 129q-80 0 -127 -31t-47 -76 q0 -47 58.5 -72.5t141.5 -43t167 -44t142 -95t58 -179.5q0 -141 -111.5 -229t-289.5 -88q-143 0 -260 66.5t-172 172.5zM225 1425l127 142l252 -219l252 219l129 -142l-381 -325z" />
<glyph unicode="&#x178;" horiz-adv-x="1595" d="M102 1434h287l410 -592l409 592h285l-580 -836v-598h-231v598q-437 631 -580 836zM453 1480.5q0 67.5 47 114.5t114.5 47t114.5 -47t47 -114.5t-47 -114.5t-114.5 -47t-114.5 47t-47 114.5zM840 1480.5q0 67.5 46 114.5t115 47q68 0 115 -47t47 -114.5t-47 -114.5 t-115 -47q-70 0 -115.5 47t-45.5 114.5z" />
<glyph unicode="&#x17d;" horiz-adv-x="1366" d="M102 0v174l813 1028h-813v232h1162v-174l-813 -1029h813v-231h-1162zM305 1802l129 144l256 -224l256 224l131 -144l-387 -332z" />
<glyph unicode="&#x17e;" horiz-adv-x="931" d="M61 0v186l498 629h-481v209h772v-186l-498 -629h518v-209h-809zM96 1425l127 142l254 -219l252 219l127 -142l-379 -325z" />
<glyph unicode="&#x2c6;" horiz-adv-x="864" d="M61 1247l381 326l381 -326l-129 -143l-252 219l-252 -217z" />
<glyph unicode="&#x2c7;" horiz-adv-x="761" d="M-10 1432l129 141l252 -219l252 219l129 -141l-381 -326z" />
<glyph unicode="&#x2da;" horiz-adv-x="575" d="M39 1351.5q0 104.5 67.5 173t172 68.5t174 -68.5t69.5 -173t-69.5 -172t-174 -67.5t-172 67.5t-67.5 172zM203 1351.5q0 -34.5 20.5 -55t55.5 -20.5q76 0 75.5 75.5t-75.5 75.5q-35 0 -55.5 -20.5t-20.5 -55z" />
<glyph unicode="&#x2dc;" horiz-adv-x="772" d="M41 1278q141 150 238 149q61 0 135 -47q53 -33 78 -32q45 0 122 77l117 -118q-141 -150 -239 -150q-57 0 -136 47q-47 33 -77 33q-47 0 -121 -78z" />
<glyph unicode="&#x2000;" horiz-adv-x="995" />
<glyph unicode="&#x2001;" horiz-adv-x="1990" />
<glyph unicode="&#x2002;" horiz-adv-x="995" />
<glyph unicode="&#x2003;" horiz-adv-x="1990" />
<glyph unicode="&#x2004;" horiz-adv-x="663" />
<glyph unicode="&#x2005;" horiz-adv-x="497" />
<glyph unicode="&#x2006;" horiz-adv-x="331" />
<glyph unicode="&#x2007;" horiz-adv-x="331" />
<glyph unicode="&#x2008;" horiz-adv-x="247" />
<glyph unicode="&#x2009;" horiz-adv-x="397" />
<glyph unicode="&#x200a;" horiz-adv-x="110" />
<glyph unicode="&#x2010;" horiz-adv-x="1085" d="M164 512v233h758v-233h-758z" />
<glyph unicode="&#x2011;" horiz-adv-x="1085" d="M164 512v233h758v-233h-758z" />
<glyph unicode="&#x2012;" horiz-adv-x="1085" d="M164 512v233h758v-233h-758z" />
<glyph unicode="&#x2013;" horiz-adv-x="1746" d="M102 512v229h1584v-229h-1584z" />
<glyph unicode="&#x2014;" horiz-adv-x="2639" d="M123 512v229h2455v-229h-2455z" />
<glyph unicode="&#x2018;" horiz-adv-x="526" d="M72 983q0 12 26 86l213 377l144 -80l-133 -229q45 -23 71.5 -66t26.5 -88q0 -68 -50.5 -121t-123.5 -53q-80 0 -127 52t-47 122z" />
<glyph unicode="&#x2019;" horiz-adv-x="649" d="M184 881l133 229q-45 23 -71.5 65t-26.5 87q0 68 50 122t124 54q80 0 127 -52.5t47 -123.5q0 -16 -26 -84l-213 -379z" />
<glyph unicode="&#x201a;" horiz-adv-x="792" d="M205 -215l133 229q-45 23 -71.5 65t-26.5 87q0 68 50 122t124 54q66 0 120 -55.5t54 -120.5q0 -18 -27 -84l-213 -379z" />
<glyph unicode="&#x201c;" horiz-adv-x="901" d="M61 983q0 27 27 86l211 377l143 -80l-131 -229q43 -23 70 -66t27 -88q0 -68 -50.5 -121t-121.5 -53q-66 0 -120.5 54t-54.5 120zM469 983q0 27 27 86l211 377l143 -80l-131 -229q43 -23 69.5 -66t26.5 -88q0 -68 -50 -121t-122 -53q-66 0 -120 54t-54 120z" />
<glyph unicode="&#x201d;" horiz-adv-x="811" d="M10 881l133 229q-45 23 -71.5 65t-26.5 87q0 68 50 122t124 54q66 0 120 -55.5t54 -120.5q0 -16 -26 -84l-213 -379zM418 881l133 229q-45 23 -71.5 65t-26.5 87q0 68 50 122t122 54q66 0 121 -55.5t55 -120.5q0 -27 -29 -84l-211 -379z" />
<glyph unicode="&#x201e;" horiz-adv-x="808" d="M10 -215l131 229q-43 23 -69.5 65t-26.5 87q0 68 50 122t122 54q66 0 121 -55.5t55 -120.5q0 -27 -28 -84l-211 -379zM418 -215l131 229q-43 23 -69.5 65t-26.5 87q0 68 50 122t122 54q66 0 120 -55.5t54 -120.5q0 -31 -27 -84l-211 -379z" />
<glyph unicode="&#x2022;" horiz-adv-x="903" d="M184 647q0 115 76 191.5t190.5 76.5t191.5 -76.5t77 -191.5t-77 -190.5t-191.5 -75.5t-190.5 75.5t-76 190.5z" />
<glyph unicode="&#x2026;" horiz-adv-x="1812" d="M133 178q0 76 51.5 128t127 52t128 -52t52.5 -128t-52.5 -127t-128 -51t-127 51t-51.5 127zM727 178q0 76 51 128t127 52t128 -52t52 -128t-52 -127t-128 -51t-127 51t-51 127zM1321 178q0 76 51 128t127 52t128 -52t52 -128t-52 -127t-128 -51t-127 51t-51 127z" />
<glyph unicode="&#x202f;" horiz-adv-x="397" />
<glyph unicode="&#x2030;" horiz-adv-x="2142" d="M61 1110q0 135 95.5 231.5t230.5 96.5t231.5 -96.5t96.5 -231.5t-96.5 -230.5t-231.5 -95.5t-230.5 95.5t-95.5 230.5zM201 111l55 -45q166 209 489.5 618.5t489.5 618.5l-53 43zM244 1110q0 -59 42 -101t101 -42t101 42t42 101t-42 101t-101 42t-101 -42t-42 -101z M717 301q0 135 95 231.5t230.5 96.5t231.5 -96.5t96 -231.5t-96 -230.5t-231.5 -95.5t-230.5 95.5t-95 230.5zM899 301q0 -59 42 -101t101.5 -42t101.5 42t42 101t-42 101t-101.5 42t-101.5 -42t-42 -101zM1448 301q0 135 95 231.5t230.5 96.5t231.5 -96.5t96 -231.5 t-96 -230.5t-231.5 -95.5t-230.5 95.5t-95 230.5zM1630 301q0 -59 42 -101t101.5 -42t101.5 42t42 101t-42 101t-101.5 42t-101.5 -42t-42 -101z" />
<glyph unicode="&#x2039;" horiz-adv-x="808" d="M123 512l391 446l152 -137l-279 -309q195 -213 279 -311l-152 -135z" />
<glyph unicode="&#x203a;" horiz-adv-x="788" d="M82 201l278 311l-278 309l151 137l392 -446l-392 -446z" />
<glyph unicode="&#x205f;" horiz-adv-x="497" />
<glyph unicode="&#x20ac;" horiz-adv-x="1572" d="M143 469l86 190h109q-2 49 0 82h-174l84 191h121q61 219 228 350t390 131q246 0 463 -174l-98 -221q-172 168 -365 168q-133 0 -232.5 -68.5t-148.5 -185.5h707l-84 -191h-662v-82h619l-86 -190h-488q51 -113 148.5 -176.5t226.5 -63.5q98 0 242 74l37 -237 q-170 -66 -279 -66q-221 0 -386 128t-228 341h-230z" />
<glyph unicode="&#x2122;" horiz-adv-x="1839" d="M20 1245v189h750v-189h-278v-618h-191v618h-281zM852 627v807h172l313 -543l308 543h174v-807h-191v395l-225 -395h-135l-226 395v-395h-190z" />
<glyph unicode="&#x2212;" horiz-adv-x="1142" d="M84 530v234h944v-234h-944z" />
<glyph unicode="&#x2260;" horiz-adv-x="1200" d="M102 264v232h998v-232h-998zM102 684v234h998v-234h-998zM213 133l532 1004l207 -109l-534 -1003z" />
<glyph unicode="&#xe000;" horiz-adv-x="1025" d="M0 1025h1025v-1025h-1025v1025z" />
<glyph horiz-adv-x="1812" d="M133 1343q0 43 28.5 71t69.5 28q43 0 72 -28t29 -71q0 -35 -27 -67q182 63 305 63q94 0 162 -48t68 -140v-12q78 14 170 14q295 0 295 -186v-60q78 16 122 17q244 0 244 -181v-514q-135 82 -244 82q-41 0 -104 -18q-70 -18 -125 -19q-121 0 -121 115v143q-33 6 -67 7 q-41 0 -127 -17q-82 -18 -152 -18q-57 0 -89 31.5t-32 85.5v104q-119 0 -313 -76v-649h-131v1266q-33 32 -33 77zM297 764q193 70 313 70q61 0 119 -13v330q0 41 -36 60.5t-83 19.5q-117 0 -313 -78v-389zM305 1186h133l76 -107l74 107h131l-150 -223v-148h-112v150 q-18 29 -75 109.5t-77 111.5zM678 709q-2 -2 2 -2zM680 707l33 14q14 4 14 -6q0 4 4 6q6 0 6 -4t-18 -2v-31zM715 616q0 -4 16 -4q39 0 129 17q94 16 150 16q92 0 186 -35v342q0 23 -7 39.5t-52 34.5t-129 18q-78 0 -168 -18v-309q0 -35 -22.5 -51.5t-65.5 -30.5 q-37 -13 -37 -19zM811 836q0 78 51 130t131 52t131.5 -51.5t51.5 -131t-51.5 -132t-131.5 -52.5t-131 52.5t-51 132.5zM920 836q0 -33 21.5 -53.5t52 -20.5t52 20.5t21.5 53.5q0 31 -21.5 51t-52 20t-52 -20t-21.5 -51zM1180 496q2 0 4 2v-2h-4zM1184 383q4 -2 14 -2 q39 0 105 18q78 20 127 21q78 0 135 -17v338q0 72 -138 72q-55 0 -122 -18v-301q0 -27 -14.5 -45.5t-30 -26.5t-41.5 -19h2q-37 -16 -37 -20zM1184 498q4 2 10 2q-4 4 -10 6v-8zM1194 498q2 0 2 -2zM1337 481.5q0 28.5 18.5 46t47.5 17.5t47 -18.5t18 -45.5q0 -29 -18 -47 t-47 -18t-47.5 18.5t-18.5 47zM1348 535v249h110v-249h-110z" />
<glyph horiz-adv-x="167" />
<glyph horiz-adv-x="270" />
<glyph horiz-adv-x="45" />
<glyph horiz-adv-x="270" />
<glyph horiz-adv-x="219" />
<glyph horiz-adv-x="290" />
<glyph horiz-adv-x="290" />
<glyph horiz-adv-x="86" />
<glyph horiz-adv-x="188" />
<glyph horiz-adv-x="45" />
<glyph horiz-adv-x="290" />
<glyph horiz-adv-x="249" />
<glyph />
<glyph />
<glyph />
<glyph />
<glyph />
<glyph />
<glyph />
<glyph />
<glyph />
<glyph />
<glyph />
<glyph />
<glyph />
<glyph />
<glyph />
<glyph />
<glyph />
<glyph />
</font>
</defs>
</svg>
